<svg width="233" height="181" viewBox="0 0 233 181" fill="none" xmlns="http://www.w3.org/2000/svg">
<g clip-path="url(#clip0)">
<path d="M205.307 102.729L210.402 97.6139C209.938 94.223 209.283 90.861 208.442 87.5441L205.538 89.0189L208.147 86.4C207.065 82.3089 206.091 79.6683 206.091 79.6683C206.091 79.6683 195.823 90.1609 190.515 102.465L193.804 111.139L189.305 105.563C188.791 107.019 188.37 108.505 188.043 110.014C184.796 125.239 187.119 138.645 193.232 139.958C199.345 141.27 206.933 129.992 210.181 114.768C211.187 110.048 211.176 104.882 210.682 99.9987L205.307 102.729Z" fill="#E6E6E6"/>
<path d="M220.449 113.353L227.445 111.617C228.795 108.474 229.967 105.256 230.955 101.98L227.709 101.737L231.292 100.848C232.474 96.7849 233 94.0192 233 94.0192C233 94.0192 218.804 97.6757 207.922 105.456L206.269 114.587L205.29 107.48C204.101 108.46 202.974 109.514 201.917 110.636C191.294 121.985 186.376 134.666 190.933 138.961C195.49 143.255 207.796 137.536 218.419 126.187C221.712 122.669 224.364 118.24 226.457 113.804L220.449 113.353Z" fill="#E6E6E6"/>
<path d="M153.67 50.2858L155.389 36.7496C150.794 32.2265 145.949 27.967 140.876 23.9914L138.239 29.5562L139.12 22.6256C132.798 17.7722 128.306 14.9597 128.306 14.9597C128.306 14.9597 125.054 42.5143 131.29 67.0257L146.178 76.1621L133.048 73.0517C133.957 75.819 135.039 78.5261 136.287 81.157C148.958 107.641 167.851 124.958 178.485 119.836C189.119 114.713 187.468 89.0917 174.796 62.6079C170.868 54.3977 164.907 46.6997 158.551 39.9839L153.67 50.2858Z" fill="#E6E6E6"/>
<path d="M188.493 48.6032L196.938 37.9071C195.335 31.6522 193.382 25.4929 191.087 19.4588L185.963 22.8549L190.287 17.3785C187.376 9.94535 184.98 5.2079 184.98 5.2079C184.98 5.2079 168 27.109 160.711 51.3263L168.749 66.8691L159.111 57.3964C158.464 60.2369 157.995 63.1154 157.708 66.0149C154.912 95.2581 162.164 119.881 173.906 121.011C185.648 122.141 197.434 99.3515 200.23 70.1083C201.097 61.0426 199.96 51.3612 197.979 42.3161L188.493 48.6032Z" fill="#E6E6E6"/>
<path d="M32.8122 52.2752L31.9579 38.0722C26.3766 34.3317 20.5894 30.91 14.624 27.8235L12.9975 34.0379L12.5602 26.7659C5.14602 23.0228 0 21.0151 0 21.0151C0 21.0151 1.99157 49.8791 13.1172 73.7794L30.1363 80.2442L16.0822 79.6116C17.5485 82.2699 19.18 84.833 20.9671 87.2858C39.0669 111.955 61.7696 126.023 71.6752 118.706C81.5807 111.39 74.938 85.46 56.8382 60.7906C51.2271 53.1428 43.6323 46.4152 35.8232 40.7708L32.8122 52.2752Z" fill="#E6E6E6"/>
<path d="M68.1656 43.7777L74.7514 31.1762C71.9005 25.0795 68.7092 19.1489 65.1926 13.4128L60.5988 17.8891L63.9707 11.4371C59.5522 4.38762 56.1813 0 56.1813 0C56.1813 0 43.0162 25.7418 40.2274 51.9717L51.4661 66.3326L39.761 58.502C39.6468 61.5382 39.723 64.5785 39.9892 67.605C42.7744 98.1104 54.9618 121.927 67.2107 120.801C79.4595 119.675 87.1313 94.0333 84.3461 63.528C83.4826 54.071 80.447 44.3729 76.6699 35.491L68.1656 43.7777Z" fill="#E6E6E6"/>
<path d="M105.009 171.29C109.806 171.29 113.694 170.176 113.694 168.801C113.694 167.426 109.806 166.311 105.009 166.311C100.213 166.311 96.3247 167.426 96.3247 168.801C96.3247 170.176 100.213 171.29 105.009 171.29Z" fill="#E6E6E6"/>
<path d="M199.549 181C204.346 181 208.234 179.885 208.234 178.51C208.234 177.135 204.346 176.021 199.549 176.021C194.753 176.021 190.865 177.135 190.865 178.51C190.865 179.885 194.753 181 199.549 181Z" fill="#E6E6E6"/>
<path d="M217.663 160.585C222.459 160.585 226.348 159.47 226.348 158.095C226.348 156.72 222.459 155.605 217.663 155.605C212.867 155.605 208.978 156.72 208.978 158.095C208.978 159.47 212.867 160.585 217.663 160.585Z" fill="#E6E6E6"/>
<path d="M182.056 153.365C185.687 153.365 188.631 152.521 188.631 151.479C188.631 150.438 185.687 149.594 182.056 149.594C178.424 149.594 175.48 150.438 175.48 151.479C175.48 152.521 178.424 153.365 182.056 153.365Z" fill="#E6E6E6"/>
<path d="M39.6257 151.586C42.0239 151.586 43.9681 150.981 43.9681 150.235C43.9681 149.488 42.0239 148.883 39.6257 148.883C37.2275 148.883 35.2833 149.488 35.2833 150.235C35.2833 150.981 37.2275 151.586 39.6257 151.586Z" fill="#E6E6E6"/>
<path d="M22.5042 166.773C24.9025 166.773 26.8466 166.168 26.8466 165.422C26.8466 164.675 24.9025 164.07 22.5042 164.07C20.106 164.07 18.1619 164.675 18.1619 165.422C18.1619 166.168 20.106 166.773 22.5042 166.773Z" fill="#E6E6E6"/>
<path d="M22.5042 142.872C24.9025 142.872 26.8466 142.267 26.8466 141.521C26.8466 140.774 24.9025 140.169 22.5042 140.169C20.106 140.169 18.1619 140.774 18.1619 141.521C18.1619 142.267 20.106 142.872 22.5042 142.872Z" fill="#E6E6E6"/>
<path d="M208.45 145.884L166.376 144.39L144.188 146.514L106.28 150.142L92.0151 151.506L58.9782 162.56C58.8456 162.604 58.7032 162.61 58.5675 162.577C58.4317 162.543 58.3083 162.472 58.2114 162.37C58.1145 162.269 58.0482 162.143 58.0201 162.005C57.992 161.868 58.0033 161.725 58.0527 161.594L58.0552 161.592L63.7846 146.387L63.1817 145.941L47.4151 134.317L47.3308 134.255L26.8868 131.128C26.599 131.083 26.3272 130.966 26.097 130.787C25.8668 130.608 25.6858 130.374 25.5711 130.105C25.4564 129.837 25.4118 129.543 25.4414 129.253C25.471 128.962 25.5739 128.684 25.7405 128.444L56.8765 83.6147L73.2386 60.0622L75.0128 57.5053L143.076 56.5617L209.53 143.788C209.679 143.984 209.77 144.219 209.792 144.466C209.814 144.712 209.765 144.959 209.652 145.179C209.539 145.399 209.366 145.582 209.153 145.706C208.94 145.831 208.697 145.893 208.45 145.884Z" fill="#F04747"/>
<path opacity="0.2" d="M90.9566 61.1434L63.1811 145.942L47.4163 134.317L56.8772 83.6153L73.1916 60.0061L73.238 60.0611L90.9566 61.1434Z" fill="black"/>
<path d="M66.1634 93.6282C63.0118 101.23 61.896 107.58 58.1577 106.433C53.0397 104.863 58.4134 99.3109 61.5651 91.709C64.7167 84.1071 66.9436 78.2758 69.5708 78.9041C74.4688 80.0756 69.3151 86.0263 66.1634 93.6282Z" fill="#3F3D56"/>
<path d="M73.3041 78.4117C73.3032 77.9086 73.2037 77.4106 73.0111 76.9461C72.8184 76.4816 72.5365 76.0598 72.1814 75.7046C71.8263 75.3494 71.4049 75.0679 70.9413 74.8761C70.4778 74.6843 69.9811 74.586 69.4797 74.5868C69.3935 74.587 69.3083 74.591 69.2236 74.5968L65.6205 74.1508C65.207 74.0029 64.7712 73.9278 64.3323 73.9289C64.211 73.9291 64.0914 73.9356 63.973 73.9469L63.8342 73.9297L63.8305 73.9637C62.9849 74.0776 62.2017 74.4723 61.6058 75.085C61.0099 75.6976 60.6357 76.4929 60.5428 77.3438C60.45 78.1948 60.6438 79.0524 61.0935 79.78C61.5431 80.5075 62.2227 81.0629 63.0237 81.3577L63.0162 81.4266L63.3706 81.4664C63.6886 81.5498 64.0159 81.5917 64.3445 81.591C64.381 81.591 64.417 81.5892 64.4532 81.5881L68.1366 82.0021C68.5696 82.1664 69.029 82.25 69.4919 82.249C69.6646 82.2484 69.837 82.2362 70.0079 82.2124L70.322 82.2477L70.3239 82.1553C71.1707 81.964 71.9273 81.489 72.4691 80.8085C73.0108 80.128 73.3053 79.2827 73.3041 78.4117Z" fill="#F04747"/>
<path opacity="0.2" d="M73.3041 78.4117C73.3032 77.9086 73.2037 77.4106 73.0111 76.9461C72.8184 76.4816 72.5365 76.0598 72.1814 75.7046C71.8263 75.3494 71.4049 75.0679 70.9413 74.8761C70.4778 74.6843 69.9811 74.586 69.4797 74.5868C69.3935 74.587 69.3083 74.591 69.2236 74.5968L65.6205 74.1508C65.207 74.0029 64.7712 73.9278 64.3323 73.9289C64.211 73.9291 64.0914 73.9356 63.973 73.9469L63.8342 73.9297L63.8305 73.9637C62.9849 74.0776 62.2017 74.4723 61.6058 75.085C61.0099 75.6976 60.6357 76.4929 60.5428 77.3438C60.45 78.1948 60.6438 79.0524 61.0935 79.78C61.5431 80.5075 62.2227 81.0629 63.0237 81.3577L63.0162 81.4266L63.3706 81.4664C63.6886 81.5498 64.0159 81.5917 64.3445 81.591C64.381 81.591 64.417 81.5892 64.4532 81.5881L68.1366 82.0021C68.5696 82.1664 69.029 82.25 69.4919 82.249C69.6646 82.2484 69.837 82.2362 70.0079 82.2124L70.322 82.2477L70.3239 82.1553C71.1707 81.964 71.9273 81.489 72.4691 80.8085C73.0108 80.128 73.3053 79.2827 73.3041 78.4117Z" fill="white"/>
<path d="M22.3108 130.746L21.8698 130.514C33.166 108.911 65.116 62.7546 65.4374 62.2909L65.8464 62.5762C65.5252 63.0397 33.5927 109.171 22.3108 130.746Z" fill="#3F3D56"/>
<path d="M56.9128 163.121L56.4324 162.99C56.6651 162.131 79.8032 76.9736 87.8368 62.6083L88.271 62.8527C80.2674 77.1648 57.1455 162.263 56.9128 163.121Z" fill="#3F3D56"/>
<path d="M211.488 146.611C199.153 126.222 152.569 63.0779 152.099 62.4424L152.5 62.145C152.969 62.7806 199.566 125.944 211.914 146.352L211.488 146.611Z" fill="#3F3D56"/>
<path d="M56.0162 165.388C56.9789 165.386 57.7577 164.378 57.7557 163.136C57.7537 161.894 56.9717 160.889 56.009 160.89C55.0463 160.892 54.2675 161.9 54.2695 163.142C54.2715 164.384 55.0535 165.389 56.0162 165.388Z" fill="#3F3D56"/>
<path d="M22.424 131.713C23.3867 131.711 24.1655 130.703 24.1635 129.461C24.1615 128.219 23.3795 127.214 22.4168 127.215C21.4541 127.217 20.6753 128.225 20.6773 129.467C20.6793 130.709 21.4613 131.714 22.424 131.713Z" fill="#3F3D56"/>
<path d="M211.95 147.733C212.912 147.732 213.691 146.724 213.689 145.482C213.687 144.24 212.905 143.234 211.943 143.236C210.98 143.237 210.201 144.245 210.203 145.487C210.205 146.729 210.987 147.735 211.95 147.733Z" fill="#3F3D56"/>
<path d="M63.5016 64.7712L157.451 65.7813C157.386 58.0825 154.291 50.7214 148.841 45.3019C143.39 39.8824 136.027 36.8435 128.353 36.8474L92.4985 36.9052C77.5015 36.9295 64.8028 48.6968 63.5889 63.6948L63.5016 64.7712Z" fill="#3F3D56"/>
<path opacity="0.2" d="M146.049 95.9311H111.712C111.294 95.9307 110.88 96.0136 110.494 96.1751C110.108 96.3366 109.758 96.5734 109.464 96.8717C109.171 97.1701 108.939 97.524 108.782 97.913C108.626 98.302 108.548 98.7184 108.553 99.1378L108.583 101.657L108.888 128.631L108.893 129.151L108.903 130.01L108.913 130.849L108.97 135.905C108.98 136.728 109.307 137.515 109.884 138.1C110.461 138.685 111.242 139.022 112.062 139.04C112.146 139.04 112.233 139.037 112.32 139.033L120.474 138.535L132.27 137.813L136.434 137.559L137.362 137.501L143.851 137.105H143.853L146.24 136.959C147.043 136.909 147.797 136.554 148.348 135.966C148.9 135.378 149.207 134.601 149.208 133.794V99.1004C149.207 98.2602 148.874 97.4545 148.282 96.8604C147.69 96.2662 146.887 95.932 146.049 95.9311Z" fill="black"/>
<path d="M153.12 91.5256C152.996 91.5355 152.875 91.5729 152.767 91.6351C152.659 91.6973 152.566 91.7827 152.495 91.8852L148.712 91.8913V90.8845C148.711 90.0442 148.378 89.2386 147.785 88.6444C147.193 88.0502 146.39 87.716 145.553 87.7152H111.216C110.798 87.7148 110.384 87.7977 109.998 87.9592C109.612 88.1207 109.262 88.3575 108.968 88.6558C108.674 88.9541 108.442 89.3081 108.286 89.6971C108.13 90.0861 108.052 90.5024 108.057 90.9219L108.069 91.9569L105.629 91.9608C105.496 91.8179 105.312 91.7325 105.117 91.7226C104.262 91.724 103.571 93.5979 103.575 95.9081C103.579 98.2184 104.275 100.09 105.13 100.089C105.279 100.072 105.422 100.02 105.547 99.9368C105.672 99.8534 105.774 99.7411 105.847 99.6094L152.507 99.5341C152.579 99.6364 152.672 99.7215 152.78 99.7833C152.889 99.8451 153.009 99.8821 153.133 99.8916C153.989 99.8903 154.679 98.0163 154.675 95.7061C154.672 93.3959 153.975 91.5242 153.12 91.5256Z" fill="#F04747"/>
<path opacity="0.2" d="M153.12 91.5256C152.996 91.5355 152.875 91.5729 152.767 91.6351C152.659 91.6973 152.566 91.7827 152.495 91.8852L148.712 91.8913V90.8845C148.711 90.0442 148.378 89.2386 147.785 88.6444C147.193 88.0502 146.39 87.716 145.553 87.7152H111.216C110.798 87.7148 110.384 87.7977 109.998 87.9592C109.612 88.1207 109.262 88.3575 108.968 88.6558C108.674 88.9541 108.442 89.3081 108.286 89.6971C108.13 90.0861 108.052 90.5024 108.057 90.9219L108.069 91.9569L105.629 91.9608C105.496 91.8179 105.312 91.7325 105.117 91.7226C104.262 91.724 103.571 93.5979 103.575 95.9081C103.579 98.2184 104.275 100.09 105.13 100.089C105.279 100.072 105.422 100.02 105.547 99.9368C105.672 99.8534 105.775 99.7411 105.847 99.6094L152.507 99.5341C152.579 99.6364 152.672 99.7215 152.78 99.7833C152.889 99.8451 153.009 99.8821 153.133 99.8916C153.989 99.8903 154.679 98.0163 154.675 95.7061C154.672 93.3959 153.975 91.5242 153.12 91.5256Z" fill="white"/>
<path d="M149.276 144.416C149.049 144.629 148.775 144.787 148.477 144.877C148.179 144.967 147.864 144.986 147.557 144.933C147.251 144.881 146.96 144.758 146.709 144.574C146.457 144.39 146.251 144.15 146.108 143.873L144.241 140.276L144.983 138.662L148.985 141.232C149.244 141.398 149.462 141.622 149.622 141.885C149.782 142.149 149.879 142.445 149.907 142.753C149.935 143.06 149.893 143.369 149.784 143.658C149.674 143.946 149.501 144.205 149.276 144.416Z" fill="#FFB8B8"/>
<path d="M157.34 165.398C157.296 164.983 157.098 164.599 156.787 164.322C156.475 164.045 156.071 163.894 155.655 163.9C155.276 163.897 154.906 164.023 154.607 164.256C154.307 164.489 154.094 164.817 154.002 165.186L152.349 173.241C152.294 173.477 152.266 173.717 152.264 173.959C152.264 175.776 153.779 177.038 155.655 177.038C157.531 177.038 159.047 175.776 159.047 173.959C159.046 173.668 159.006 173.379 158.93 173.098L157.34 165.398Z" fill="#3F3D56"/>
<path d="M169.846 169.001C169.677 168.853 169.497 168.721 169.305 168.605L162.989 164.176C162.374 163.789 161.718 163.8 161.241 164.267C161.032 164.466 160.9 164.732 160.867 165.018C160.834 165.304 160.902 165.593 161.059 165.835L165.828 172.124C165.937 172.276 166.058 172.419 166.191 172.551C167.018 173.478 168.851 173.529 169.858 172.551C170.852 171.557 170.84 169.785 169.846 169.001Z" fill="#3F3D56"/>
<path d="M174.592 162.441H168.195C167.99 162.433 167.79 162.507 167.639 162.646C167.488 162.785 167.398 162.979 167.388 163.184C167.385 163.374 167.445 163.559 167.559 163.711C167.673 163.862 167.834 163.971 168.017 164.019L174.051 165.892C174.928 166.097 176.109 165.314 176.109 164.335C176.109 163.09 175.418 162.441 174.592 162.441Z" fill="#3F3D56"/>
<path d="M144.154 163.181C144.148 163.075 144.12 162.972 144.073 162.877C144.026 162.782 143.961 162.697 143.881 162.628C143.801 162.559 143.708 162.506 143.607 162.474C143.507 162.441 143.401 162.428 143.296 162.437H136.899C136.093 162.437 135.414 163.31 135.414 164.289C135.414 165.268 136.56 166.097 137.439 165.892L143.565 164.019C143.748 163.976 143.91 163.867 144.019 163.713C144.127 163.558 144.176 163.369 144.154 163.181Z" fill="#3F3D56"/>
<path d="M148.544 164.183L142.227 168.593C142.03 168.704 141.847 168.837 141.682 168.989C141.217 169.423 140.943 170.024 140.92 170.66C140.897 171.296 141.127 171.915 141.559 172.381C141.598 172.423 141.639 172.464 141.682 172.504C142.177 172.973 142.833 173.235 143.515 173.235C144.196 173.235 144.852 172.973 145.348 172.504C145.483 172.374 145.604 172.231 145.711 172.077L150.484 165.824C150.643 165.586 150.713 165.298 150.68 165.013C150.646 164.728 150.512 164.464 150.302 164.269C150.066 164.049 149.761 163.919 149.439 163.903C149.117 163.888 148.8 163.987 148.544 164.183Z" fill="#3F3D56"/>
<path d="M158.371 155.566C158.445 155.458 158.485 155.331 158.489 155.2C158.489 154.428 156.973 153.892 155.097 153.892C153.221 153.892 151.706 154.428 151.706 155.2C151.709 155.307 151.738 155.412 151.79 155.505L153.444 158.929C153.633 159.252 154.316 159.477 155.097 159.475C155.977 159.475 156.708 159.196 156.782 158.838L158.371 155.566Z" fill="#3F3D56"/>
<path d="M169.3 155.798C168.293 155.383 166.46 155.405 165.633 155.798C165.508 155.851 165.386 155.911 165.27 155.98L160.501 158.653C160.176 158.864 160.253 159.145 160.682 159.319C161.247 159.515 161.858 159.529 162.431 159.358L168.747 157.476C168.93 157.429 169.11 157.373 169.287 157.307C170.282 156.974 170.294 156.221 169.3 155.798Z" fill="#3F3D56"/>
<path d="M175.551 159.29C175.551 158.874 174.37 158.541 173.493 158.628L167.459 159.424C167.098 159.475 166.83 159.593 166.83 159.779C166.83 159.965 167.224 160.095 167.637 160.095H174.034C174.86 160.095 175.551 159.819 175.551 159.29Z" fill="#3F3D56"/>
<path d="M143.006 159.424L136.881 158.628C136.002 158.541 134.855 158.894 134.855 159.31C134.855 159.726 135.535 160.097 136.341 160.097H142.737C143.183 160.097 143.596 159.974 143.596 159.781C143.596 159.587 143.405 159.475 143.006 159.424Z" fill="#3F3D56"/>
<path d="M149.744 159.318C150.191 159.141 150.243 158.874 149.925 158.657L145.153 156C145.037 155.93 144.915 155.869 144.79 155.819C143.602 155.404 142.311 155.404 141.123 155.819C141.081 155.835 141.04 155.853 141.001 155.871C140.101 156.283 140.156 156.929 141.123 157.312C141.301 157.381 141.483 157.437 141.668 157.481L147.986 159.355C148.561 159.526 149.176 159.513 149.744 159.318Z" fill="#3F3D56"/>
<path d="M168.107 155.012C168.107 164.912 162.608 165.095 155.825 165.095C149.041 165.095 137.905 163.136 143.542 155.012C149.489 146.443 159.69 130.11 155.825 129.245C155.825 129.245 168.107 145.112 168.107 155.012Z" fill="#F9A825"/>
<path opacity="0.5" d="M160.15 161.104C160.15 165.022 157.974 165.095 155.289 165.095C152.604 165.095 148.195 164.319 150.427 161.104C152.781 157.712 156.819 151.247 155.289 150.904C155.289 150.904 160.15 157.185 160.15 161.104Z" fill="#FF6584"/>
<path d="M149.208 132.024V133.794C149.207 134.601 148.899 135.378 148.348 135.966C147.797 136.554 147.043 136.909 146.24 136.959L112.32 139.033C111.893 139.059 111.465 138.998 111.062 138.853C110.659 138.708 110.29 138.482 109.976 138.19C109.663 137.898 109.412 137.544 109.239 137.151C109.066 136.759 108.975 136.335 108.97 135.905L108.888 128.631L129.407 128.297L149.208 132.024Z" fill="#3F3D56"/>
<path d="M143.677 140.792L128.374 132.818C128.303 132.781 128.241 132.729 128.192 132.667C128.143 132.604 128.107 132.531 128.088 132.454L124.769 119.03C124.576 118.251 124.68 117.428 125.06 116.722C125.441 116.016 126.07 115.478 126.825 115.213L127.624 114.932C127.803 114.87 127.992 114.844 128.18 114.858C128.369 114.872 128.552 114.924 128.72 115.012C128.887 115.1 129.035 115.221 129.153 115.368C129.272 115.516 129.36 115.686 129.41 115.869L132.682 127.687C132.713 127.798 132.776 127.896 132.864 127.969L145.333 138.335C145.44 138.424 145.511 138.551 145.53 138.69C145.549 138.828 145.516 138.969 145.438 139.085L144.397 140.611C144.32 140.724 144.204 140.805 144.071 140.839C143.938 140.872 143.798 140.855 143.677 140.792Z" fill="#E6E6E6"/>
<path d="M133.596 119.908C126.174 115.988 118.404 114.019 110.077 115.189C112.587 110.92 114.452 106.974 114.327 104.02C114.273 103.07 114.453 102.122 114.849 101.258C115.246 100.395 115.847 99.6418 116.601 99.0655C117.814 98.1632 119.284 97.6763 120.794 97.677C122.142 97.0737 123.67 97.0128 125.062 97.5067C125.653 97.7299 126.19 98.0756 126.638 98.5213C127.087 98.967 127.437 99.5025 127.665 100.093C127.95 100.785 128.562 101.391 129.452 101.925C130.275 102.403 130.946 103.107 131.386 103.953C131.972 105.123 132.012 106.3 131.244 107.489C134.118 110.518 134.126 115.07 133.596 119.908Z" fill="#2F2E41"/>
<path d="M123.074 110.097C125.945 110.097 128.273 107.761 128.273 104.88C128.273 102 125.945 99.6642 123.074 99.6642C120.203 99.6642 117.875 102 117.875 104.88C117.875 107.761 120.203 110.097 123.074 110.097Z" fill="#FFB8B8"/>
<path d="M125.55 116.182L119.484 116.803C119.81 113.245 119.938 109.962 119.484 107.489H125.55C124.398 111.426 124.499 114.233 125.55 116.182Z" fill="#FFB8B8"/>
<path d="M128.799 116.048C128.794 116.593 128.782 117.132 128.764 117.666C128.637 121.485 128.158 124.923 126.853 127.455C126.588 127.98 126.272 128.476 125.908 128.937C125.905 128.942 125.902 128.946 125.898 128.949C125.873 128.984 125.846 129.018 125.816 129.049C125.549 129.381 125.253 129.689 124.93 129.968L122.446 132.582L122.332 132.701L121.608 133.187L117.876 135.681L108.913 130.849L108.903 130.01L108.893 129.151C110.886 126.318 112.129 122.633 112.918 118.438C113.134 117.29 113.317 116.103 113.474 114.883C113.58 114.039 113.675 113.177 113.757 112.303C113.769 112.035 113.86 111.776 114.017 111.559C114.017 111.559 114.017 111.558 114.017 111.558C114.017 111.558 114.018 111.557 114.018 111.557C114.018 111.557 114.018 111.557 114.019 111.557C114.019 111.556 114.019 111.556 114.02 111.556C114.402 111.068 115.161 111.078 116.079 111.029C117.367 110.959 118.635 110.289 119.774 110.921C119.802 110.934 119.83 110.949 119.856 110.966L123.198 114.691L124.734 113.03L124.806 112.953L127.97 114.312C128.293 114.453 128.556 114.706 128.708 115.024C128.86 115.343 128.892 115.707 128.799 116.048Z" fill="#E6E6E6"/>
<path d="M121.744 134.354C121.744 134.989 121.625 135.619 121.392 136.209L120.474 138.535L112.32 139.033C112.233 139.037 112.146 139.04 112.062 139.04C111.242 139.022 110.461 138.685 109.884 138.1C109.307 137.515 108.98 136.728 108.97 135.905L108.913 130.849L108.903 130.01L111.871 131.272L114.764 129.714C114.922 129.646 115.083 129.588 115.248 129.539C115.462 129.471 115.681 129.419 115.903 129.382H115.906C116.012 129.365 116.119 129.35 116.226 129.34C117.452 129.217 118.681 129.551 119.677 130.279C120.26 130.702 120.743 131.247 121.094 131.877C121.121 131.92 121.145 131.965 121.166 132.012C121.363 132.382 121.512 132.777 121.608 133.187C121.698 133.569 121.744 133.961 121.744 134.354Z" fill="#2F2E41"/>
<path opacity="0.2" d="M119.422 119.473L120.507 124.466L127.097 130.154L121.279 124.193L119.422 119.473Z" fill="black"/>
<path opacity="0.2" d="M113.357 121.833L115.338 129.906L121.156 132.017L115.709 129.285L113.357 121.833Z" fill="black"/>
<path d="M129.325 105.191C125.493 103.422 121.161 102.918 117.318 104.818L117.813 100.347L126.231 98.9811L129.325 105.191Z" fill="#2F2E41"/>
<path d="M160.126 144.48L131.951 139.623L132.296 137.916L160.126 144.48Z" fill="#3F3D56"/>
<path d="M136.651 140.69C136.423 140.904 136.15 141.061 135.852 141.151C135.554 141.241 135.239 141.26 134.932 141.207C134.625 141.155 134.334 141.032 134.083 140.848C133.831 140.664 133.626 140.424 133.482 140.147L131.615 136.551L132.358 134.936L136.36 137.506C136.619 137.672 136.836 137.896 136.996 138.159C137.156 138.423 137.254 138.719 137.282 139.027C137.31 139.334 137.267 139.643 137.158 139.932C137.049 140.22 136.875 140.479 136.651 140.69Z" fill="#FFB8B8"/>
<path d="M131.051 137.066L115.748 129.092C115.677 129.055 115.616 129.003 115.566 128.941C115.517 128.878 115.482 128.806 115.463 128.728L112.143 115.304C111.95 114.525 112.054 113.702 112.435 112.996C112.815 112.29 113.444 111.752 114.199 111.487L114.999 111.206C115.177 111.144 115.366 111.118 115.555 111.132C115.743 111.146 115.927 111.198 116.094 111.286C116.261 111.374 116.409 111.495 116.528 111.642C116.647 111.79 116.734 111.96 116.784 112.143L120.056 123.961C120.087 124.072 120.151 124.17 120.239 124.243L132.707 134.609C132.815 134.698 132.885 134.825 132.904 134.964C132.924 135.102 132.891 135.244 132.812 135.359L131.772 136.885C131.694 136.998 131.578 137.079 131.446 137.113C131.313 137.146 131.172 137.13 131.051 137.066Z" fill="#E6E6E6"/>
<path d="M157.089 145.364C157.224 145.391 157.364 145.362 157.479 145.286C157.594 145.209 157.673 145.09 157.701 144.954L157.983 143.537C158.01 143.401 157.983 143.26 157.906 143.145C157.829 143.03 157.71 142.95 157.575 142.922L153.486 142.102C153.35 142.075 153.21 142.103 153.095 142.18C152.98 142.257 152.901 142.376 152.873 142.512L152.591 143.93C152.578 143.997 152.578 144.066 152.591 144.133C152.604 144.2 152.631 144.264 152.668 144.321C152.706 144.378 152.755 144.427 152.812 144.466C152.869 144.504 152.932 144.53 152.999 144.544L157.089 145.364Z" fill="#E6E6E6"/>
</g>
<defs>
<clipPath id="clip0">
<rect width="233" height="181" fill="white"/>
</clipPath>
</defs>
</svg>
