<svg width="234" height="182" viewBox="0 0 234 182" fill="none" xmlns="http://www.w3.org/2000/svg">
<g clip-path="url(#clip0)">
<path d="M70.8298 70.1767C69.5775 68.5708 67.8078 67.0849 67.6958 65.1032C67.593 63.2857 68.9623 61.4811 68.3848 59.7423C67.9408 58.4053 66.4759 57.5986 65.0445 57.1714C62.304 56.3652 59.3713 56.4769 56.7015 57.4893L56.8464 57.3881C55.217 56.8136 53.3123 57.4067 52.0303 58.5052C50.7482 59.6036 49.9863 61.1262 49.3951 62.652C48.8038 64.1778 48.3457 65.7594 47.5243 67.1898C46.7027 68.6203 45.4449 69.9212 43.7854 70.4155C44.341 71.5124 46.0777 71.8887 47.0963 71.1329C47.3565 70.9237 47.5904 70.6844 47.7929 70.42C48.4722 69.6024 49.1516 68.7848 49.831 67.9672C50.53 69.1977 49.4857 70.896 50.345 72.0352C50.788 72.6226 51.5972 72.8457 52.3487 73.0058C58.2226 74.2462 64.3158 74.0225 70.0807 72.3548C70.544 72.2196 71.0552 72.0335 71.2474 71.6185C71.4694 71.1393 71.159 70.599 70.8298 70.1767Z" fill="#2F2E41"/>
<path d="M87.4847 76.4438C87.4481 76.6034 87.4241 76.7656 87.4132 76.929L74.5747 84.2596L71.4542 82.4815L68.1274 86.792L73.3427 90.4711C73.7641 90.7683 74.2714 90.9222 74.7887 90.9098C75.3059 90.8973 75.8051 90.7191 76.2113 90.4019L89.45 80.0648C90.0474 80.2837 90.6981 80.3174 91.3153 80.1614C91.9326 80.0053 92.4872 79.667 92.9055 79.1914C93.3237 78.7157 93.5858 78.1254 93.6567 77.4987C93.7277 76.8721 93.6042 76.2389 93.3028 75.6835C93.0013 75.128 92.5361 74.6765 91.969 74.3891C91.402 74.1017 90.76 73.992 90.1284 74.0745C89.4968 74.157 88.9056 74.4279 88.4333 74.8512C87.9611 75.2744 87.6302 75.8299 87.4847 76.4438H87.4847Z" fill="#FFB7B7"/>
<path d="M74.1454 84.6068L69.9961 89.9294C69.878 90.0809 69.7283 90.2053 69.5573 90.2944C69.3862 90.3834 69.1978 90.4349 69.0048 90.4454C68.8119 90.4558 68.6189 90.425 68.439 90.355C68.2592 90.285 68.0967 90.1774 67.9626 90.0397L63.2652 85.2118C62.4856 84.6096 61.9791 83.726 61.8568 82.7547C61.7345 81.7834 62.0063 80.8038 62.6127 80.0306C63.2191 79.2575 64.1106 78.7539 65.0916 78.6303C66.0726 78.5067 67.0631 78.7732 67.8458 79.3714L73.7374 82.632C73.906 82.7254 74.0523 82.8537 74.1664 83.0081C74.2804 83.1625 74.3595 83.3395 74.3982 83.5269C74.437 83.7143 74.4344 83.9078 74.3908 84.0941C74.3472 84.2805 74.2635 84.4553 74.1454 84.6068H74.1454Z" fill="#F04747"/>
<path d="M68.4349 177.348L72.0988 177.348L73.8418 163.36L68.4341 163.36L68.4349 177.348Z" fill="#FFB7B7"/>
<path d="M67.5002 176.164L74.7161 176.164H74.7164C75.9359 176.164 77.1055 176.643 77.9679 177.497C78.8302 178.351 79.3147 179.508 79.3148 180.715V180.863L67.5005 180.864L67.5002 176.164Z" fill="#2F2E41"/>
<path d="M43.3301 177.348L46.9943 177.348L48.7373 163.36L43.3296 163.36L43.3301 177.348Z" fill="#FFB7B7"/>
<path d="M42.3958 176.164L49.6116 176.164H49.6119C50.8314 176.164 52.001 176.643 52.8634 177.497C53.7257 178.351 54.2102 179.508 54.2103 180.715V180.863L42.396 180.864L42.3958 176.164Z" fill="#2F2E41"/>
<path d="M66.2348 68.1993C66.6164 64.7585 64.1076 61.6631 60.6313 61.2854C57.1549 60.9077 54.0274 63.3907 53.6458 66.8315C53.2642 70.2722 55.773 73.3677 59.2493 73.7454C62.7257 74.1231 65.8532 71.64 66.2348 68.1993Z" fill="#FFB7B7"/>
<path d="M63.6454 76.911L67.3759 78.7401C67.3759 78.7401 71.544 85.9095 69.1531 92.713C67.9923 96.0162 71.2611 106.546 71.2611 106.546C71.2611 106.546 76.3259 154.24 76.3418 168.96C70.0497 169.918 64.0724 171.101 63.7735 168.143C63.4747 165.185 60.2031 130.21 60.2031 130.21C60.2031 130.21 55.7042 169.03 52.1178 169.622C48.5314 170.213 41.3586 169.326 41.3586 169.326C41.3586 169.326 47.0531 112.462 50.9383 108.912L51.536 105.954L51.5201 79.4018L55.9963 77.2876L63.6454 76.911Z" fill="#2F2E41"/>
<path d="M50.2999 117.22C50.7127 116.999 51.0715 116.691 51.351 116.318C51.6306 115.945 51.8241 115.515 51.9179 115.06C52.0116 114.605 52.0034 114.135 51.8938 113.683C51.7842 113.232 51.5759 112.809 51.2835 112.446L55.622 83.8233L49.9538 83.554L46.5718 112.058C45.9876 112.585 45.6188 113.305 45.5354 114.083C45.452 114.861 45.6597 115.642 46.1192 116.278C46.5788 116.914 47.2582 117.362 48.0287 117.535C48.7992 117.709 49.6073 117.597 50.2999 117.22Z" fill="#FFB7B7"/>
<path d="M55.4991 90.995L48.7201 90.5714C48.5272 90.5594 48.3392 90.5063 48.1689 90.4159C47.9986 90.3254 47.85 90.1997 47.7333 90.0473C47.6165 89.8949 47.5343 89.7193 47.4922 89.5326C47.4501 89.3459 47.4492 89.1525 47.4895 88.9654L48.902 82.4103C48.9698 81.4338 49.426 80.5238 50.1707 79.8798C50.9154 79.2358 51.8878 78.9103 52.8745 78.9749C53.8613 79.0394 54.7819 79.4886 55.4345 80.224C56.0871 80.9594 56.4185 81.9209 56.3558 82.8978L56.9239 89.5549C56.9401 89.7455 56.9147 89.9374 56.8492 90.1173C56.7838 90.2973 56.6799 90.4612 56.5447 90.5979C56.4094 90.7346 56.246 90.8408 56.0656 90.9093C55.8852 90.9778 55.6919 91.0071 55.499 90.995H55.4991Z" fill="#F04747"/>
<path d="M66.5766 63.4412C66.3299 62.3333 65.5284 61.4154 64.6051 60.7432C63.0831 59.635 61.2165 59.0902 59.3305 59.2037C57.4444 59.3173 55.6584 60.0819 54.2832 61.3644C53.5148 62.0361 52.9608 62.9149 52.6891 63.8933C52.5594 64.3823 52.5525 64.8952 52.6689 65.3875C52.7853 65.8798 53.0215 66.3364 53.357 66.7176L53.4835 66.7961C53.3688 66.3145 53.7467 65.8333 54.1983 65.6209C54.6678 65.4503 55.158 65.3415 55.6562 65.2973C56.41 65.1563 57.1245 64.8568 57.7513 64.419C58.378 63.9813 58.9026 63.4155 59.2895 62.7598C59.5761 63.5668 60.034 64.3036 60.6324 64.9208C61.2308 65.538 61.9557 66.0212 62.7585 66.338C63.5954 66.6619 65.8941 67.1074 66.6909 66.6961C67.7073 66.1715 66.8234 64.5491 66.5766 63.4412Z" fill="#2F2E41"/>
<path d="M19.9839 168.708C21.0796 169.089 22.256 169.184 23.3997 168.985C24.5435 168.785 25.6161 168.298 26.5142 167.569C28.8015 165.669 29.5188 162.539 30.1021 159.641L31.828 151.067L28.2147 153.53C25.6161 155.3 22.9591 157.128 21.16 159.693C19.361 162.258 18.5761 165.76 20.0212 168.535" fill="#E6E6E6"/>
<path d="M20.5418 179.684C20.087 176.405 19.6191 173.083 19.9389 169.769C20.2223 166.825 21.1297 163.95 22.977 161.592C23.9575 160.343 25.1507 159.273 26.5028 158.43C26.8553 158.21 27.1798 158.763 26.8288 158.982C24.4892 160.445 22.6796 162.606 21.6609 165.153C20.5358 167.985 20.3551 171.073 20.5489 174.082C20.6661 175.901 20.915 177.709 21.165 179.514C21.1847 179.596 21.1724 179.682 21.1305 179.755C21.0886 179.828 21.0203 179.882 20.9393 179.907C20.8567 179.929 20.7687 179.918 20.6943 179.876C20.6199 179.835 20.5652 179.765 20.542 179.684L20.5418 179.684Z" fill="#F2F2F2"/>
<path d="M23.8149 174.422C24.2848 175.129 24.9307 175.705 25.6904 176.093C26.4502 176.481 27.2981 176.669 28.1526 176.639C30.349 176.536 32.1793 175.019 33.8268 173.579L38.7008 169.319L35.4751 169.167C33.1554 169.057 30.7757 168.954 28.5662 169.662C26.3567 170.371 24.319 172.074 23.9151 174.338" fill="#E6E6E6"/>
<path d="M19.2564 181.569C21.4458 177.735 23.9852 173.474 28.5231 172.112C29.7848 171.734 31.1077 171.599 32.4206 171.713C32.8345 171.749 32.7311 172.38 32.3181 172.345C30.1173 172.164 27.9207 172.739 26.0981 173.973C24.3442 175.155 22.9786 176.798 21.8229 178.54C21.1149 179.607 20.4807 180.719 19.8466 181.83C19.6439 182.185 19.0514 181.929 19.2564 181.569Z" fill="#F2F2F2"/>
<path d="M167.209 110.682C163.1 105.24 155.58 103.927 151.844 106.691C148.107 109.454 147.249 116.964 151.357 122.406C155.16 127.443 162.05 128.817 165.845 126.93C165.833 126.989 165.832 127.049 165.843 127.108L166.057 128.155C166.073 128.235 166.11 128.31 166.163 128.371C166.217 128.433 166.286 128.48 166.363 128.509C166.44 128.537 166.523 128.545 166.604 128.533C166.686 128.52 166.762 128.487 166.827 128.437L168.639 127.036C168.704 126.986 168.755 126.92 168.787 126.845C168.819 126.77 168.831 126.688 168.822 126.607C168.813 126.526 168.783 126.449 168.735 126.383C168.688 126.316 168.624 126.263 168.549 126.228L167.575 125.769C167.54 125.754 167.504 125.743 167.467 125.736C170.393 122.675 171.02 115.73 167.209 110.682Z" fill="#CCCCCC"/>
<path d="M158.222 108.628C160.231 108.944 162.042 110.011 163.279 111.61C164.517 113.209 165.087 115.217 164.872 117.22C164.828 117.679 165.552 117.676 165.596 117.22C165.803 115.061 165.178 112.905 163.846 111.183C162.514 109.461 160.574 108.302 158.414 107.937C157.958 107.86 157.762 108.55 158.222 108.628Z" fill="white"/>
<path d="M173.906 16.6143C177.498 10.8254 175.953 3.42389 171.978 1.00771C168.003 -1.40847 160.636 0.57569 157.044 6.36459C153.719 11.7229 154.974 18.5676 158.147 21.3612C158.087 21.3717 158.03 21.3934 157.978 21.4252L157.074 22.0087C157.006 22.0532 156.949 22.1143 156.911 22.1864C156.873 22.2585 156.854 22.339 156.856 22.4204C156.858 22.5018 156.881 22.5814 156.922 22.6515C156.964 22.7216 157.023 22.78 157.094 22.8211L159.079 23.9702C159.15 24.0113 159.23 24.0338 159.313 24.0354C159.395 24.0371 159.476 24.018 159.549 23.9798C159.622 23.9417 159.683 23.8857 159.728 23.8174C159.773 23.749 159.799 23.6705 159.804 23.5892L159.875 22.5233C159.877 22.4862 159.874 22.4489 159.867 22.4124C163.821 23.9724 170.573 21.9843 173.906 16.6143Z" fill="#CCCCCC"/>
<path d="M172.515 7.58933C172.961 9.55458 172.627 11.6142 171.583 13.3429C170.539 15.0717 168.864 16.3377 166.904 16.8796C166.457 17.0085 166.727 17.6735 167.171 17.5455C169.275 16.9388 171.069 15.5674 172.193 13.7064C173.318 11.8454 173.69 9.63236 173.235 7.51115C173.139 7.06369 172.418 7.13855 172.515 7.58933Z" fill="white"/>
<path d="M110.248 44.0811C109.948 37.2941 104.48 32.0188 99.82 32.2208C95.1598 32.4228 90.1789 38.1512 90.4793 44.9381C90.7573 51.2203 95.6704 56.1948 99.8804 56.7496C99.8367 56.7915 99.8016 56.8413 99.7768 56.8962L99.3582 57.8807C99.3263 57.9557 99.3143 58.0376 99.3233 58.1186C99.3324 58.1995 99.3621 58.2768 99.4099 58.3431C99.4576 58.4094 99.5217 58.4626 99.596 58.4975C99.6703 58.5324 99.7524 58.548 99.8345 58.5427L102.129 58.3943C102.211 58.389 102.29 58.3631 102.359 58.3189C102.428 58.2747 102.485 58.2137 102.524 58.1418C102.562 58.0699 102.582 57.9894 102.58 57.908C102.578 57.8266 102.556 57.7469 102.514 57.6766L101.97 56.7544C101.95 56.7227 101.926 56.6934 101.9 56.6671C106.058 55.7673 110.527 50.3769 110.248 44.0811Z" fill="#F04747"/>
<path d="M103.989 37.3755C105.471 38.7565 106.36 40.6477 106.473 42.6587C106.586 44.6697 105.915 46.647 104.598 48.1825C104.301 48.5371 104.901 48.9381 105.197 48.5859C106.596 46.9171 107.306 44.7866 107.184 42.6214C107.063 40.4563 106.119 38.4167 104.541 36.9117C104.208 36.5944 103.654 37.0559 103.989 37.3755Z" fill="white"/>
<path d="M131.616 89.105C129.82 88.993 128.076 88.4613 126.527 87.5534C124.979 86.6455 123.669 85.3872 122.707 83.8818C122.437 83.4551 122.085 82.9861 122.272 82.4608C122.337 82.2594 122.469 82.0858 122.647 81.9683C122.824 81.8509 123.037 81.7966 123.25 81.8143C123.801 81.8806 124.156 82.4136 124.224 82.9243C124.301 83.5037 123.888 83.9585 123.378 84.1737C122.132 84.6997 120.875 83.8869 119.86 83.2381C117.548 81.7598 115.004 80.423 112.202 80.2545C109.61 80.0987 106.83 81.1047 105.388 83.3299C105.136 83.7192 105.762 84.0789 106.013 83.6915C107.443 81.4847 110.334 80.6922 112.848 81.0332C114.346 81.2672 115.792 81.7533 117.124 82.4704C117.815 82.8252 118.485 83.2186 119.142 83.6322C119.767 84.0637 120.429 84.4394 121.121 84.755C122.275 85.2241 123.802 85.1875 124.608 84.1074C125.36 83.0997 124.779 81.422 123.521 81.1387C123.246 81.0849 122.96 81.0997 122.692 81.1817C122.423 81.2638 122.179 81.4105 121.982 81.6089C121.785 81.8072 121.64 82.0509 121.561 82.318C121.483 82.5852 121.472 82.8676 121.531 83.1398C121.656 83.7332 122.108 84.3139 122.457 84.7989C123.507 86.2608 124.875 87.4709 126.46 88.3402C128.045 89.2094 129.807 89.7157 131.616 89.8216C132.082 89.8444 132.081 89.1278 131.616 89.105L131.616 89.105Z" fill="#CCCCCC"/>
<path d="M201.143 39.737C203.125 38.8244 205.559 38.5252 207.575 39.3732C209.592 40.2213 210.967 42.3949 210.315 44.3186C210.019 45.1908 209.346 46.0486 209.608 46.9294C209.81 47.6074 210.515 48.0551 211.206 48.3734C211.898 48.6917 212.655 48.9592 213.155 49.4961C213.656 50.0329 213.76 50.957 213.135 51.3733C212.929 51.5105 212.672 51.5755 212.472 51.7201C212.302 51.8569 212.179 52.0429 212.121 52.2521C212.062 52.4613 212.072 52.6833 212.147 52.8872C212.313 53.2973 212.588 53.6555 212.943 53.9239C213.653 54.5296 214.59 55.2227 214.37 56.0824C214.288 56.3122 214.152 56.5191 213.972 56.6855C213.792 56.8519 213.575 56.9729 213.337 57.0383C212.845 57.1788 212.334 57.2455 211.822 57.2362L190.885 57.889C190.194 57.9404 189.499 57.902 188.818 57.7748C188.487 57.715 188.172 57.5883 187.893 57.4026C187.613 57.2168 187.376 56.9761 187.195 56.6953C186.794 55.9608 187.057 55.056 187.552 54.3701C188.047 53.6842 188.748 53.1432 189.327 52.5134C189.906 51.8836 190.38 51.0974 190.278 50.2834C190.196 49.6318 189.762 49.0686 189.45 48.4765C189.138 47.8845 188.957 47.1446 189.361 46.5999C189.93 45.8324 191.296 45.9018 191.942 45.1866C192.43 44.6469 192.336 43.8699 192.385 43.1739C192.501 41.4998 193.673 39.9187 195.34 39.1845C196.187 38.8243 197.109 38.6688 198.03 38.7309C198.95 38.7929 199.842 39.0707 200.633 39.5413L201.143 39.737Z" fill="#2F2E41"/>
<path d="M226.64 122.586V125.975L213.434 127.587L213.434 122.586L226.64 122.586Z" fill="#9E616A"/>
<path d="M229.959 121.722L229.959 132.649H229.819C228.679 132.649 227.586 132.201 226.781 131.403C225.975 130.606 225.522 129.524 225.522 128.396V128.396L225.522 121.722L229.959 121.722Z" fill="#2F2E41"/>
<path d="M210.315 128.351L209.474 131.636L196.271 129.99L197.512 125.142L210.315 128.351Z" fill="#9E616A"/>
<path d="M213.746 128.319L211.036 138.912L210.9 138.878C209.795 138.601 208.847 137.901 208.264 136.932C207.68 135.963 207.51 134.805 207.789 133.711L207.789 133.711L209.445 127.241L213.746 128.319Z" fill="#2F2E41"/>
<path d="M206.942 90.3469L207.655 91.0821C207.655 91.0821 212.309 94.6935 208.866 104.207L203.234 120.264L222.111 120.992L221.706 128.33C221.706 128.33 194.332 129.837 194.571 125.372C194.811 120.907 195.821 104.373 195.821 104.373L190.133 99.853L191.505 92.2072L206.942 90.3469Z" fill="#2F2E41"/>
<path d="M192.32 97.6339L190.134 99.853L182.802 119.801C182.802 119.801 181.685 124.776 184.198 125.882C186.712 126.988 202.885 133.173 202.885 133.173L204.536 127.29L192.075 119.887L197.883 112.338L198.757 100.439L192.32 97.6339Z" fill="#2F2E41"/>
<path d="M192.437 62.4437L211.047 58.7607L211.451 68.8663L206.631 79.0358L207.656 91.0821L190.977 93.9663L191.499 78.1263C191.499 78.1263 187.02 71.8723 189.659 65.5686L192.437 62.4437Z" fill="#E4E4E4"/>
<path d="M233.934 38.4709C234.027 38.8951 234.025 39.3344 233.929 39.7578C233.832 40.1812 233.642 40.5785 233.374 40.9216C233.105 41.2647 232.763 41.5453 232.373 41.7437C231.983 41.9421 231.554 42.0533 231.116 42.0697L213.269 62.5517L209.12 57.5679L227.967 39.0019C227.988 38.2713 228.279 37.5737 228.785 37.0413C229.291 36.5089 229.977 36.1787 230.712 36.1133C231.448 36.0478 232.182 36.2517 232.776 36.6862C233.37 37.1207 233.782 37.7558 233.934 38.4709Z" fill="#9E616A"/>
<path d="M217.155 60.3168C217.16 60.5081 217.122 60.6981 217.045 60.8737C216.969 61.0493 216.855 61.2065 216.711 61.3345L211.693 65.8055C211.063 66.5601 210.156 67.0367 209.172 67.1309C208.188 67.225 207.206 66.929 206.441 66.3077C205.677 65.6865 205.193 64.7906 205.095 63.8166C204.997 62.8426 205.293 61.8699 205.919 61.1116L209.421 55.3733C209.521 55.2095 209.656 55.069 209.816 54.9613C209.975 54.8536 210.157 54.7813 210.347 54.7492C210.538 54.7171 210.733 54.7261 210.92 54.7755C211.107 54.8249 211.281 54.9135 211.43 55.0354L216.667 59.3187C216.817 59.4406 216.937 59.5928 217.022 59.765C217.106 59.9373 217.151 60.1255 217.155 60.3168Z" fill="#E4E4E4"/>
<path d="M163.256 86.605C163.228 86.1717 163.297 85.7377 163.457 85.3335C163.617 84.9292 163.864 84.5646 164.182 84.2653C164.5 83.966 164.88 83.7392 165.295 83.6011C165.711 83.4629 166.153 83.4166 166.588 83.4655L187.338 65.8657L190.684 71.4093L169.236 86.9662C169.105 87.6854 168.711 88.3319 168.13 88.7831C167.549 89.2343 166.821 89.459 166.084 89.4144C165.347 89.3699 164.652 89.0593 164.131 88.5415C163.61 88.0237 163.299 87.3347 163.256 86.605V86.605Z" fill="#9E616A"/>
<path d="M183.157 67.4984C183.182 67.3086 183.248 67.1264 183.35 66.9642C183.453 66.8019 183.589 66.6635 183.751 66.5583L189.39 62.8831C190.127 62.2305 191.096 61.8938 192.083 61.9468C193.071 61.9999 193.997 62.4384 194.658 63.1662C195.32 63.894 195.663 64.8516 195.612 65.8293C195.561 66.8069 195.121 67.7247 194.387 68.3814L190.054 73.5346C189.93 73.6817 189.776 73.8006 189.602 73.8833C189.428 73.9661 189.237 74.0107 189.044 74.0141C188.851 74.0175 188.659 73.9796 188.482 73.903C188.305 73.8265 188.146 73.713 188.017 73.5704L183.488 68.5576C183.359 68.4151 183.263 68.2466 183.206 68.0638C183.149 67.881 183.132 67.6881 183.157 67.4984Z" fill="#E4E4E4"/>
<path d="M200.368 57.7284C204.157 57.7284 207.228 54.6888 207.228 50.9392C207.228 47.1897 204.157 44.1501 200.368 44.1501C196.58 44.1501 193.509 47.1897 193.509 50.9392C193.509 54.6888 196.58 57.7284 200.368 57.7284Z" fill="#9E616A"/>
<path d="M207.386 49.974C205.22 49.8018 203.421 47.66 203.646 45.5206C203.672 46.4024 203.369 47.2627 202.795 47.9378C202.221 48.6129 201.417 49.0557 200.535 49.182C199.541 49.2904 198.452 48.9928 197.587 49.489C196.629 50.0385 196.322 51.373 195.324 51.8476C194.36 52.3062 193.136 51.6808 192.659 50.7327C192.183 49.7847 192.3 48.6457 192.615 47.634C193.066 46.1913 193.885 44.8885 194.995 43.8522C196.105 42.816 197.467 42.0816 198.948 41.7206C200.429 41.3595 201.98 41.3841 203.449 41.7918C204.918 42.1996 206.255 42.9766 207.331 44.0475C208.241 44.9542 208.965 46.11 209.082 47.3834C209.199 48.6568 208.602 50.0385 207.447 50.6105L207.386 49.974Z" fill="#2F2E41"/>
<path d="M106.685 181.304H0.279281C0.205211 181.304 0.134179 181.275 0.0818036 181.223C0.0294282 181.172 0 181.101 0 181.028C0 180.955 0.0294282 180.884 0.0818036 180.832C0.134179 180.781 0.205211 180.752 0.279281 180.752H106.685C106.759 180.752 106.831 180.781 106.883 180.832C106.935 180.884 106.965 180.955 106.965 181.028C106.965 181.101 106.935 181.172 106.883 181.223C106.831 181.275 106.759 181.304 106.685 181.304Z" fill="#CACACA"/>
</g>
<defs>
<clipPath id="clip0">
<rect width="234" height="182" fill="white"/>
</clipPath>
</defs>
</svg>
