<svg width="265" height="147" viewBox="0 0 265 147" fill="none" xmlns="http://www.w3.org/2000/svg">
<path d="M231.128 60.6418H30.6817C29.8305 60.6418 29.0143 60.9772 28.4125 61.5741C27.8106 62.171 27.4725 62.9806 27.4725 63.8248C27.4725 64.669 27.8106 65.4785 28.4125 66.0755C29.0143 66.6724 29.8305 67.0077 30.6817 67.0077H36.3594V143.154C36.3594 143.998 36.6975 144.808 37.2993 145.404C37.9011 146.001 38.7174 146.337 39.5685 146.337C40.4196 146.337 41.2359 146.001 41.8377 145.404C42.4395 144.808 42.7776 143.998 42.7776 143.154L42.8264 67.0077H203.705L218.539 143.154C218.539 143.998 218.877 144.808 219.479 145.404C220.081 146.001 220.897 146.337 221.748 146.337C222.599 146.337 223.415 146.001 224.017 145.404C224.619 144.808 224.957 143.998 224.957 143.154L225.891 67.0077H231.128C231.98 67.0077 232.796 66.6724 233.398 66.0755C234 65.4785 234.338 64.669 234.338 63.8248C234.338 62.9806 234 62.171 233.398 61.5741C232.796 60.9772 231.98 60.6418 231.128 60.6418Z" fill="#CCCCCC"/>
<path d="M65.4265 46.4591V59.938H31.379C30.4867 59.9688 29.597 59.8249 28.7607 59.5147C27.9245 59.2045 27.158 58.7339 26.5051 58.1298C25.8522 57.5258 25.3256 56.8001 24.9554 55.9942C24.5853 55.1883 24.3788 54.318 24.3477 53.433C24.3167 52.5479 24.4617 51.6655 24.7745 50.836C25.0873 50.0066 25.5617 49.2464 26.1708 48.5988C26.7798 47.9512 27.5114 47.4289 28.3239 47.0618C29.1364 46.6947 30.0139 46.4898 30.9062 46.4591C31.0638 46.4536 31.2214 46.4536 31.379 46.4591L65.4265 46.4591Z" fill="#F2F2F2"/>
<path d="M66.2628 59.8343C66.2628 59.9718 66.2077 60.1036 66.1097 60.2008C66.0117 60.2981 65.8788 60.3527 65.7402 60.3527H30.7727C28.8744 60.3514 27.0543 59.6026 25.7125 58.2708C24.3706 56.9389 23.6169 55.1332 23.6169 53.2504C23.6169 51.3676 24.3706 49.5618 25.7125 48.23C27.0543 46.8982 28.8744 46.1493 30.7727 46.148H65.7402C65.8089 46.1478 65.877 46.1611 65.9406 46.1871C66.0042 46.2131 66.0619 46.2512 66.1106 46.2994C66.1593 46.3475 66.1979 46.4047 66.2243 46.4677C66.2506 46.5307 66.2642 46.5982 66.2642 46.6664C66.2642 46.7346 66.2506 46.8022 66.2243 46.8651C66.1979 46.9281 66.1593 46.9853 66.1106 47.0335C66.0619 47.0817 66.0042 47.1198 65.9406 47.1458C65.877 47.1718 65.8089 47.185 65.7402 47.1849H30.7727C29.1523 47.1873 27.5992 47.8274 26.4544 48.9646C25.3095 50.1019 24.6665 51.6433 24.6665 53.2504C24.6665 54.8575 25.3095 56.3989 26.4544 57.5361C27.5992 58.6734 29.1523 59.3135 30.7727 59.3159H65.7402C65.8788 59.316 66.0117 59.3706 66.1097 59.4678C66.2077 59.565 66.2628 59.6969 66.2628 59.8343Z" fill="#F04747"/>
<path d="M65.4265 49.5696H28.8387C28.811 49.5697 28.7844 49.559 28.7647 49.5397C28.7451 49.5205 28.7338 49.4943 28.7336 49.4668C28.7333 49.4394 28.744 49.413 28.7634 49.3934C28.7827 49.3738 28.8091 49.3626 28.8367 49.3622H65.4265C65.4541 49.3625 65.4804 49.3735 65.4997 49.3929C65.5191 49.4123 65.53 49.4386 65.53 49.4659C65.53 49.4932 65.5191 49.5194 65.4997 49.5388C65.4804 49.5582 65.4541 49.5693 65.4265 49.5696Z" fill="#CCCCCC"/>
<path d="M65.4265 52.058H28.8387C28.811 52.0582 28.7844 52.0474 28.7647 52.0282C28.7451 52.0089 28.7338 51.9827 28.7336 51.9553C28.7333 51.9279 28.744 51.9014 28.7634 51.8818C28.7827 51.8622 28.8091 51.851 28.8367 51.8506H65.4265C65.4541 51.8509 65.4804 51.862 65.4997 51.8814C65.5191 51.9008 65.53 51.927 65.53 51.9543C65.53 51.9817 65.5191 52.0079 65.4997 52.0273C65.4804 52.0467 65.4541 52.0577 65.4265 52.058Z" fill="#CCCCCC"/>
<path d="M65.4265 54.5464H28.8387C28.811 54.5466 28.7844 54.5358 28.7647 54.5166C28.7451 54.4973 28.7338 54.4711 28.7336 54.4437C28.7333 54.4162 28.744 54.3898 28.7634 54.3702C28.7827 54.3506 28.8091 54.3394 28.8367 54.339H65.4265C65.4541 54.3393 65.4804 54.3504 65.4997 54.3698C65.5191 54.3892 65.53 54.4154 65.53 54.4427C65.53 54.47 65.5191 54.4963 65.4997 54.5157C65.4804 54.5351 65.4541 54.5461 65.4265 54.5464Z" fill="#CCCCCC"/>
<path d="M65.4265 57.0348H28.8387C28.811 57.035 28.7844 57.0242 28.7647 57.005C28.7451 56.9857 28.7338 56.9595 28.7336 56.9321C28.7333 56.9047 28.744 56.8782 28.7634 56.8586C28.7827 56.839 28.8091 56.8278 28.8367 56.8275H65.4265C65.4541 56.8277 65.4804 56.8388 65.4997 56.8582C65.5191 56.8776 65.53 56.9038 65.53 56.9311C65.53 56.9585 65.5191 56.9847 65.4997 57.0041C65.4804 57.0235 65.4541 57.0345 65.4265 57.0348Z" fill="#CCCCCC"/>
<path d="M59.0083 32.2582V45.7371H24.9608C23.1587 45.7993 21.4055 45.1489 20.0869 43.929C18.7682 42.709 17.9922 41.0195 17.9295 39.2321C17.8668 37.4447 18.5226 35.7058 19.7526 34.3979C20.9825 33.0901 22.6859 32.3204 24.488 32.2582C24.6456 32.2527 24.8032 32.2527 24.9608 32.2582H59.0083Z" fill="#F2F2F2"/>
<path d="M59.8445 45.6334C59.8445 45.7709 59.7894 45.9027 59.6914 46C59.5934 46.0972 59.4604 46.1518 59.3218 46.1519H24.3544C22.4552 46.1519 20.6338 45.4036 19.2909 44.0716C17.948 42.7397 17.1936 40.9332 17.1936 39.0495C17.1936 37.1658 17.948 35.3593 19.2909 34.0274C20.6338 32.6954 22.4552 31.9471 24.3544 31.9471H59.3218C59.3905 31.9471 59.4584 31.9606 59.5219 31.9866C59.5853 32.0127 59.6429 32.0508 59.6914 32.099C59.74 32.1471 59.7785 32.2043 59.8047 32.2672C59.831 32.3301 59.8445 32.3975 59.8445 32.4656C59.8445 32.5336 59.831 32.601 59.8047 32.6639C59.7785 32.7268 59.74 32.784 59.6914 32.8321C59.6429 32.8803 59.5853 32.9185 59.5219 32.9445C59.4584 32.9706 59.3905 32.984 59.3218 32.984H24.3544C22.7325 32.984 21.177 33.623 20.0301 34.7605C18.8833 35.898 18.239 37.4408 18.239 39.0495C18.239 40.6582 18.8833 42.201 20.0301 43.3385C21.177 44.476 22.7325 45.115 24.3544 45.115H59.3218C59.4604 45.1151 59.5934 45.1697 59.6914 45.2669C59.7894 45.3641 59.8445 45.496 59.8445 45.6334Z" fill="#3F3D56"/>
<path d="M59.0082 35.3687H22.4204C22.3928 35.3689 22.3662 35.3581 22.3465 35.3389C22.3268 35.3196 22.3156 35.2934 22.3153 35.266C22.3151 35.2386 22.3258 35.2121 22.3451 35.1925C22.3644 35.1729 22.3908 35.1617 22.4185 35.1613H59.0082C59.0358 35.1616 59.0621 35.1727 59.0815 35.1921C59.1008 35.2115 59.1117 35.2377 59.1117 35.265C59.1117 35.2923 59.1008 35.3186 59.0815 35.338C59.0621 35.3574 59.0358 35.3684 59.0082 35.3687Z" fill="#CCCCCC"/>
<path d="M59.0082 37.8571H22.4204C22.3928 37.8573 22.3662 37.8465 22.3465 37.8273C22.3268 37.808 22.3156 37.7818 22.3153 37.7544C22.3151 37.727 22.3258 37.7006 22.3451 37.6809C22.3644 37.6613 22.3908 37.6501 22.4185 37.6497H59.0082C59.0358 37.65 59.0621 37.6611 59.0815 37.6805C59.1008 37.6999 59.1117 37.7261 59.1117 37.7534C59.1117 37.7808 59.1008 37.807 59.0815 37.8264C59.0621 37.8458 59.0358 37.8568 59.0082 37.8571Z" fill="#CCCCCC"/>
<path d="M59.0082 40.3456H22.4204C22.3928 40.3457 22.3662 40.335 22.3465 40.3157C22.3268 40.2965 22.3156 40.2703 22.3153 40.2428C22.3151 40.2154 22.3258 40.189 22.3451 40.1694C22.3644 40.1498 22.3908 40.1386 22.4185 40.1382H59.0082C59.0358 40.1385 59.0621 40.1495 59.0815 40.1689C59.1008 40.1884 59.1117 40.2146 59.1117 40.2419C59.1117 40.2692 59.1008 40.2954 59.0815 40.3148C59.0621 40.3342 59.0358 40.3453 59.0082 40.3456Z" fill="#CCCCCC"/>
<path d="M59.0082 42.8339H22.4204C22.3928 42.8341 22.3662 42.8234 22.3465 42.8041C22.3268 42.7849 22.3156 42.7586 22.3153 42.7312C22.3151 42.7038 22.3258 42.6774 22.3451 42.6578C22.3644 42.6382 22.3908 42.6269 22.4185 42.6266H59.0082C59.0358 42.6269 59.0621 42.6379 59.0815 42.6573C59.1008 42.6767 59.1117 42.7029 59.1117 42.7303C59.1117 42.7576 59.1008 42.7838 59.0815 42.8032C59.0621 42.8226 59.0358 42.8337 59.0082 42.8339Z" fill="#CCCCCC"/>
<path d="M98.6158 108.338V96.5856C98.6157 96.0661 98.4077 95.5679 98.0373 95.2006C97.667 94.8332 97.1647 94.6269 96.6409 94.6269H51.7132C51.1894 94.6269 50.6871 94.8332 50.3168 95.2006C49.9464 95.5679 49.7384 96.0661 49.7383 96.5856V108.338H98.6158Z" fill="#CCCCCC"/>
<path d="M98.6158 112.745H49.7383V127.925H98.6158V112.745Z" fill="#CCCCCC"/>
<path d="M49.7383 132.333V144.085C49.7384 144.605 49.9464 145.103 50.3168 145.47C50.6871 145.837 51.1894 146.044 51.7132 146.044H96.6409C97.1647 146.044 97.667 145.837 98.0373 145.47C98.4077 145.103 98.6157 144.605 98.6158 144.085V132.333H49.7383Z" fill="#CCCCCC"/>
<path d="M73.9302 103.441C74.7482 103.441 75.4114 102.783 75.4114 101.972C75.4114 101.161 74.7482 100.503 73.9302 100.503C73.1122 100.503 72.4491 101.161 72.4491 101.972C72.4491 102.783 73.1122 103.441 73.9302 103.441Z" fill="white"/>
<path d="M73.9302 123.029C74.7482 123.029 75.4114 122.371 75.4114 121.56C75.4114 120.748 74.7482 120.09 73.9302 120.09C73.1122 120.09 72.4491 120.748 72.4491 121.56C72.4491 122.371 73.1122 123.029 73.9302 123.029Z" fill="white"/>
<path d="M74.0096 142.201C74.8276 142.201 75.4908 141.544 75.4908 140.732C75.4908 139.921 74.8276 139.263 74.0096 139.263C73.1916 139.263 72.5285 139.921 72.5285 140.732C72.5285 141.544 73.1916 142.201 74.0096 142.201Z" fill="white"/>
<path d="M93.0743 81.2267V94.7056H59.0269C57.2256 94.7666 55.4735 94.1156 54.1559 92.8958C52.8383 91.6761 52.0629 89.9873 52.0002 88.2007C51.9375 86.4141 52.5926 84.6759 53.8214 83.3682C55.0503 82.0604 56.7524 81.2902 58.5537 81.2267C58.7113 81.2213 58.8691 81.2213 59.0269 81.2267H93.0743Z" fill="#F2F2F2"/>
<path d="M93.9106 94.602C93.9105 94.7394 93.8555 94.8713 93.7575 94.9685C93.6594 95.0657 93.5265 95.1203 93.3879 95.1204H58.4205C56.5217 95.1208 54.7006 94.3733 53.3574 93.0423C52.0143 91.7112 51.2591 89.9055 51.2579 88.0223C51.2568 86.1391 52.0098 84.3325 53.3513 82.9998C54.6929 81.6671 56.5131 80.9175 58.4118 80.9157H93.3879C93.4567 80.9155 93.5248 80.9287 93.5884 80.9547C93.6519 80.9807 93.7097 81.0189 93.7584 81.067C93.8071 81.1152 93.8457 81.1724 93.8721 81.2354C93.8984 81.2984 93.912 81.3659 93.912 81.4341C93.912 81.5023 93.8984 81.5698 93.8721 81.6328C93.8457 81.6958 93.8071 81.753 93.7584 81.8011C93.7097 81.8493 93.6519 81.8874 93.5884 81.9134C93.5248 81.9394 93.4567 81.9527 93.3879 81.9525H58.4205C56.7999 81.9546 55.2465 82.5946 54.1014 83.7318C52.9563 84.8691 52.3131 86.4107 52.3131 88.018C52.3131 89.6253 52.9563 91.1669 54.1014 92.3042C55.2465 93.4415 56.7999 94.0814 58.4205 94.0835H93.3879C93.5265 94.0836 93.6594 94.1382 93.7575 94.2354C93.8555 94.3327 93.9105 94.4645 93.9106 94.602Z" fill="#3F3D56"/>
<path d="M93.0743 84.3372H56.4865C56.4588 84.3374 56.4323 84.3266 56.4126 84.3074C56.3929 84.2881 56.3817 84.2619 56.3814 84.2345C56.3812 84.2071 56.3919 84.1806 56.4112 84.161C56.4305 84.1414 56.4569 84.1302 56.4846 84.1299H93.0743C93.1019 84.1301 93.1282 84.1412 93.1476 84.1606C93.167 84.18 93.1778 84.2062 93.1778 84.2335C93.1778 84.2609 93.167 84.2871 93.1476 84.3065C93.1282 84.3259 93.1019 84.337 93.0743 84.3372H93.0743Z" fill="#CCCCCC"/>
<path d="M93.0743 86.8257H56.4865C56.4588 86.8258 56.4323 86.8151 56.4126 86.7958C56.3929 86.7766 56.3817 86.7504 56.3814 86.7229C56.3812 86.6955 56.3919 86.6691 56.4112 86.6495C56.4305 86.6299 56.4569 86.6187 56.4846 86.6183H93.0743C93.1019 86.6186 93.1282 86.6296 93.1476 86.649C93.167 86.6685 93.1778 86.6947 93.1778 86.722C93.1778 86.7493 93.167 86.7755 93.1476 86.7949C93.1282 86.8144 93.1019 86.8254 93.0743 86.8257H93.0743Z" fill="#CCCCCC"/>
<path d="M93.0743 89.3141H56.4865C56.4588 89.3142 56.4323 89.3035 56.4126 89.2843C56.3929 89.265 56.3817 89.2388 56.3814 89.2114C56.3812 89.1839 56.3919 89.1575 56.4112 89.1379C56.4305 89.1183 56.4569 89.1071 56.4846 89.1067H93.0743C93.1019 89.107 93.1282 89.118 93.1476 89.1374C93.167 89.1569 93.1778 89.1831 93.1778 89.2104C93.1778 89.2377 93.167 89.2639 93.1476 89.2834C93.1282 89.3028 93.1019 89.3138 93.0743 89.3141H93.0743Z" fill="#CCCCCC"/>
<path d="M93.0743 91.8025H56.4865C56.4588 91.8026 56.4323 91.7919 56.4126 91.7726C56.3929 91.7534 56.3817 91.7272 56.3814 91.6997C56.3812 91.6723 56.3919 91.6459 56.4112 91.6263C56.4305 91.6067 56.4569 91.5955 56.4846 91.5951H93.0743C93.1019 91.5954 93.1282 91.6064 93.1476 91.6258C93.167 91.6452 93.1778 91.6714 93.1778 91.6988C93.1778 91.7261 93.167 91.7523 93.1476 91.7717C93.1282 91.7911 93.1019 91.8022 93.0743 91.8025H93.0743Z" fill="#CCCCCC"/>
<path d="M53.0874 27.7617H37.575C37.4278 27.7616 37.2825 27.7951 37.1505 27.8596L33.2353 29.8037C33.1064 29.858 32.9966 29.9487 32.9193 30.0645C32.8421 30.1803 32.8009 30.3161 32.8009 30.4549C32.8009 30.5938 32.8421 30.7296 32.9193 30.8454C32.9966 30.9612 33.1064 31.0519 33.2353 31.1062L37.1505 33.0502C37.2825 33.1148 37.4278 33.1483 37.575 33.1482H53.0874C53.3012 33.1605 53.5112 33.0887 53.672 32.9485C53.8328 32.8082 53.9315 32.6108 53.9466 32.399V28.5109C53.9315 28.299 53.8328 28.1016 53.672 27.9614C53.5112 27.8212 53.3012 27.7494 53.0874 27.7617Z" fill="#3F3D56"/>
<path d="M53.9466 28.5109V32.399C53.9315 32.6108 53.8328 32.8083 53.672 32.9485C53.5112 33.0887 53.3012 33.1605 53.0874 33.1482H49.9969V27.7617H53.0874C53.3012 27.7494 53.5112 27.8212 53.672 27.9614C53.8328 28.1016 53.9315 28.2991 53.9466 28.5109Z" fill="#F04747"/>
<path d="M140.863 60.3358L139.225 59.6518L138.101 51.5082H123.139L121.921 59.6185L120.456 60.3452C120.386 60.38 120.329 60.4372 120.296 60.5076C120.263 60.5781 120.255 60.6575 120.273 60.7332C120.291 60.8089 120.334 60.8763 120.395 60.9245C120.457 60.9728 120.533 60.999 120.611 60.999H140.728C140.808 60.999 140.886 60.9715 140.948 60.921C141.01 60.8706 141.053 60.8003 141.069 60.7222C141.085 60.6441 141.073 60.563 141.035 60.4925C140.998 60.4221 140.937 60.3667 140.863 60.3358Z" fill="#E6E6E6"/>
<path d="M167.452 52.5917H93.9527C93.5671 52.5908 93.1975 52.4383 92.9252 52.1675C92.6528 51.8968 92.4998 51.5299 92.4998 51.1474V40.8676H168.905V51.1474C168.905 51.5299 168.752 51.8968 168.479 52.1675C168.207 52.4383 167.837 52.5908 167.452 52.5917Z" fill="#CCCCCC"/>
<path d="M168.981 45.7261H92.4327V1.74104C92.4333 1.27944 92.6184 0.8369 92.9475 0.510507C93.2766 0.184113 93.7228 0.000516499 94.1882 0H167.226C167.691 0.00051649 168.138 0.184114 168.467 0.510507C168.796 0.8369 168.981 1.27944 168.981 1.74104L168.981 45.7261Z" fill="#3F3D56"/>
<path d="M164.409 42.5337H97.0046C96.6459 42.5333 96.3019 42.3917 96.0482 42.1401C95.7945 41.8885 95.6518 41.5473 95.6514 41.1914V4.53467C95.6518 4.1788 95.7945 3.83761 96.0482 3.58597C96.3019 3.33433 96.6459 3.19278 97.0046 3.19237H164.409C164.768 3.19278 165.112 3.33433 165.366 3.58597C165.62 3.83761 165.762 4.1788 165.763 4.53467V41.1914C165.762 41.5473 165.62 41.8885 165.366 42.1401C165.112 42.3917 164.768 42.5333 164.409 42.5337Z" fill="white"/>
<path d="M146.656 55.468C147.091 55.0693 147.609 54.7701 148.174 54.5914C148.738 54.4128 149.335 54.3591 149.923 54.434C150.51 54.509 151.074 54.7108 151.574 55.0253C152.075 55.3398 152.5 55.7593 152.819 56.2542L161.936 54.6465L164.273 59.9036L151.365 61.9946C150.491 62.4715 149.471 62.6139 148.499 62.3948C147.526 62.1757 146.668 61.6104 146.088 60.8059C145.507 60.0014 145.245 59.0136 145.349 58.0298C145.454 57.046 145.919 56.1345 146.656 55.468Z" fill="#FFB6B6"/>
<path d="M155.097 62.1805L164.602 62.0629L165.805 62.0468L185.143 61.8051C185.143 61.8051 190.395 56.836 194.968 51.72L194.327 47.122C193.702 42.6096 191.445 38.4761 187.976 35.4909C181.427 39.8313 177.629 48.4227 177.629 48.4227L165.639 51.2672L164.439 51.5518L156.989 53.3176L155.097 62.1805Z" fill="#F04747"/>
<path d="M203.754 90.4415H186.012C186.012 91.1955 166.617 91.8075 166.617 91.8075C166.19 92.127 165.8 92.4936 165.455 92.9002C164.42 94.125 163.854 95.6731 163.857 97.2714V98.3641C163.858 100.175 164.584 101.912 165.875 103.193C167.166 104.474 168.917 105.193 170.743 105.194H203.754C205.58 105.192 207.331 104.472 208.622 103.192C209.913 101.911 210.639 100.175 210.64 98.3641V97.2714C210.638 95.4607 209.911 93.725 208.621 92.4447C207.33 91.1644 205.58 90.444 203.754 90.4415Z" fill="#E4E4E4"/>
<path d="M190.852 104.923H183.691V145.922H190.852V104.923Z" fill="#E4E4E4"/>
<path d="M163.308 145.672C163.308 146.44 174.16 145.969 187.547 145.969C200.933 145.969 211.786 146.44 211.786 145.672C211.786 144.905 200.933 138.819 187.547 138.819C174.16 138.819 163.308 144.905 163.308 145.672Z" fill="#E4E4E4"/>
<path d="M158.497 140.988L153.167 140.987L150.632 120.597L158.498 120.597L158.497 140.988Z" fill="#FFB6B6"/>
<path d="M159.857 146.112L142.671 146.111V145.896C142.671 144.136 143.376 142.449 144.63 141.205C145.885 139.96 147.586 139.261 149.36 139.261H149.36L159.857 139.262L159.857 146.112Z" fill="#2F2E41"/>
<path d="M142.745 140.988L137.415 140.987L134.879 120.597L142.745 120.597L142.745 140.988Z" fill="#FFB6B6"/>
<path d="M144.104 146.112L126.918 146.111V145.896C126.918 144.136 127.623 142.449 128.877 141.205C130.132 139.96 131.833 139.261 133.607 139.261H133.608L144.104 139.262L144.104 146.112Z" fill="#2F2E41"/>
<path d="M190.488 23.5983C195.606 23.5983 199.755 19.4831 199.755 14.4067C199.755 9.33038 195.606 5.21518 190.488 5.21518C185.37 5.21518 181.221 9.33038 181.221 14.4067C181.221 19.4831 185.37 23.5983 190.488 23.5983Z" fill="#FFB6B6"/>
<path d="M205.487 77.3837C205.487 77.3837 208.596 93.6917 196.765 95.7684C184.935 97.8451 167.857 99.3047 167.857 99.3047L160.187 134.794L149.884 133.882C149.884 133.882 151.254 91.1603 154.624 87.8179C157.994 84.4756 179.293 74.4677 179.293 74.4677L205.487 77.3837Z" fill="#2F2E41"/>
<path d="M182.38 70.549L177.206 75.6974C177.206 75.6974 139.845 81.6662 138.404 90.2249C136.228 103.147 133.658 131.246 133.658 131.246L144.891 130.41L149.296 98.469L167.268 94.4142L187.716 83.3614L182.38 70.549Z" fill="#2F2E41"/>
<path d="M199.406 8.92007C198.491 7.20816 197.328 3.79633 195.482 3.16357C194.457 2.82634 193.397 2.60241 192.322 2.49586L189.184 3.6931L190.892 2.37547C190.559 2.35582 190.227 2.33975 189.895 2.32728L187.777 3.13506L188.86 2.29933C186.886 2.27923 184.848 2.48282 183.319 3.67481C182.015 4.69098 180.723 8.54042 180.514 10.1721C180.29 11.7331 180.369 13.3219 180.744 14.8539L181.28 15.3597C181.468 14.933 181.609 14.4877 181.701 14.0314C181.893 13.1786 182.263 12.375 182.785 11.6716C183.308 10.9683 183.973 10.3806 184.737 9.94616L184.766 9.92983C185.666 9.42776 186.757 9.45091 187.788 9.48772L192.687 9.66256C193.866 9.70463 195.135 9.77859 196.053 10.5118C196.637 11.0527 197.097 11.7125 197.399 12.4458C197.856 13.3598 198.748 16.807 198.748 16.807C198.748 16.807 199.253 16.1563 199.495 16.6406C199.883 15.377 200.119 14.0723 200.198 12.7537C200.275 11.4292 200.002 10.1077 199.406 8.92007Z" fill="#2F2E41"/>
<path d="M231.818 18.4432C231.227 18.4818 230.651 18.6485 230.132 18.9316C229.613 19.2146 229.163 19.6071 228.813 20.0814C228.463 20.5557 228.223 21.1003 228.108 21.6768C227.994 22.2533 228.008 22.8477 228.15 23.4182L220.698 28.8704L222.934 34.1702L233.349 26.324C234.299 26.0237 235.106 25.388 235.615 24.5374C236.124 23.6869 236.301 22.6805 236.113 21.7091C235.924 20.7377 235.382 19.8687 234.591 19.2668C233.799 18.6648 232.813 18.3718 231.818 18.4432Z" fill="#FFB6B6"/>
<path d="M230.619 29.574L211.937 50.1531C211.937 50.1531 203.003 47.3164 196.093 44.241L192.989 34.7851C192.268 32.5915 191.961 30.285 192.082 27.9809C201.66 25.453 212.801 34.8593 212.801 34.8593L226.785 23.9948L230.619 29.574Z" fill="#F04747"/>
<path d="M187.027 78.9037C183.694 77.7617 180.247 76.581 176.53 76.1377L176.37 76.1185L176.414 75.9653C180.262 62.5638 179.302 53.991 177.416 41.1135C177.015 38.3359 177.53 35.504 178.885 33.0407C180.24 30.5774 182.362 28.6147 184.933 27.4455L184.956 27.4353L195.574 26.7661L195.598 26.7646L203.32 29.0172C204.43 29.3436 205.403 30.0223 206.087 30.9492C206.772 31.8761 207.132 33.0001 207.111 34.149C207.027 38.384 207.204 43.1122 207.392 48.118C207.814 59.3482 208.249 70.9607 205.777 78.4952L205.764 78.5347L205.731 78.5604C203.458 80.3965 200.61 81.3886 197.679 81.3657C194.213 81.3657 190.676 80.154 187.027 78.9037Z" fill="#F04747"/>
<path d="M264.218 147H0.382371C0.28096 147 0.183704 146.947 0.111995 146.852C0.0402872 146.756 0 146.628 0 146.493C0 146.359 0.0402872 146.23 0.111995 146.135C0.183704 146.04 0.28096 145.986 0.382371 145.986H264.218C264.319 145.986 264.416 146.04 264.488 146.135C264.56 146.23 264.6 146.359 264.6 146.493C264.6 146.628 264.56 146.756 264.488 146.852C264.416 146.947 264.319 147 264.218 147Z" fill="#CCCCCC"/>
</svg>
