<svg width="653" height="176" viewBox="0 0 653 176" fill="none" xmlns="http://www.w3.org/2000/svg">
<path d="M42.44 58.75C48.2367 58.75 53.6017 59.86 58.535 62.08C63.5917 64.1767 67.97 67.1367 71.67 70.96C75.4933 74.66 78.4533 79.0383 80.55 84.095C82.77 89.0283 83.88 94.3933 83.88 100.19V141.815H42.44C36.7667 141.815 31.4017 140.767 26.345 138.67C21.2883 136.45 16.8483 133.428 13.025 129.605C9.20167 125.782 6.18 121.342 3.96 116.285C1.86333 111.228 0.815 105.863 0.815 100.19C0.815 94.3933 1.86333 89.0283 3.96 84.095C6.18 79.0383 9.20167 74.66 13.025 70.96C16.8483 67.1367 21.2883 64.1767 26.345 62.08C31.4017 59.86 36.7667 58.75 42.44 58.75ZM67.415 125.35V100.19C67.415 96.7367 66.7367 93.53 65.38 90.57C64.1467 87.4867 62.3583 84.835 60.015 82.615C57.795 80.2717 55.1433 78.4833 52.06 77.25C49.1 75.8933 45.8933 75.215 42.44 75.215C38.9867 75.215 35.7183 75.8933 32.635 77.25C29.5517 78.4833 26.8383 80.2717 24.495 82.615C22.275 84.835 20.4867 87.4867 19.13 90.57C17.8967 93.53 17.28 96.7367 17.28 100.19C17.28 103.643 17.8967 106.912 19.13 109.995C20.4867 113.078 22.275 115.792 24.495 118.135C26.8383 120.355 29.5517 122.143 32.635 123.5C35.7183 124.733 38.9867 125.35 42.44 125.35H67.415ZM88.6221 100.375C88.6221 94.5783 89.6704 89.2133 91.7671 84.28C93.9871 79.2233 96.9471 74.845 100.647 71.145C104.47 67.3217 108.91 64.3617 113.967 62.265C119.024 60.045 124.389 58.935 130.062 58.935C135.859 58.935 141.224 60.045 146.157 62.265C151.214 64.3617 155.654 67.3217 159.477 71.145C163.3 74.845 166.26 79.2233 168.357 84.28C170.577 89.2133 171.687 94.5783 171.687 100.375V142H155.222V100.375C155.222 96.9217 154.544 93.715 153.187 90.755C151.954 87.6717 150.165 85.02 147.822 82.8C145.602 80.4567 142.95 78.6683 139.867 77.435C136.784 76.0783 133.515 75.4 130.062 75.4C126.609 75.4 123.34 76.0783 120.257 77.435C117.297 78.6683 114.645 80.4567 112.302 82.8C110.082 85.02 108.294 87.6717 106.937 90.755C105.704 93.715 105.087 96.9217 105.087 100.375V142H88.6221V100.375ZM177.332 58.75H193.612V141.815H177.332V58.75ZM306.863 58.75C312.659 58.75 318.024 59.86 322.958 62.08C328.014 64.1767 332.454 67.1367 336.278 70.96C340.101 74.66 343.061 79.0383 345.158 84.095C347.378 89.0283 348.488 94.3933 348.488 100.19V141.815H332.023V100.19C332.023 96.7367 331.344 93.53 329.988 90.57C328.754 87.4867 326.966 84.835 324.623 82.615C322.403 80.2717 319.751 78.4833 316.668 77.25C313.584 75.8933 310.316 75.215 306.863 75.215C303.409 75.215 300.141 75.8933 297.058 77.25C294.098 78.4833 291.446 80.2717 289.103 82.615C286.883 84.835 285.094 87.4867 283.738 90.57C282.504 93.53 281.888 96.7367 281.888 100.19V141.815H265.423V100.19C265.423 96.7367 264.744 93.53 263.388 90.57C262.154 87.4867 260.366 84.835 258.023 82.615C255.803 80.2717 253.151 78.4833 250.068 77.25C246.984 75.8933 243.716 75.215 240.263 75.215C236.809 75.215 233.541 75.8933 230.458 77.25C227.498 78.4833 224.846 80.2717 222.503 82.615C220.283 84.835 218.494 87.4867 217.138 90.57C215.904 93.53 215.288 96.7367 215.288 100.19V141.815H198.823V100.19C198.823 94.3933 199.871 89.0283 201.968 84.095C204.188 79.0383 207.148 74.66 210.848 70.96C214.671 67.1367 219.111 64.1767 224.168 62.08C229.224 59.86 234.589 58.75 240.263 58.75C247.169 58.75 253.459 60.2917 259.133 63.375C264.929 66.335 269.739 70.405 273.563 75.585C277.386 70.405 282.196 66.335 287.993 63.375C293.789 60.2917 300.079 58.75 306.863 58.75ZM419.499 112.585L431.154 124.24L425.419 129.975C421.472 133.922 416.971 136.943 411.914 139.04C406.857 141.137 401.554 142.185 396.004 142.185C390.454 142.185 385.151 141.137 380.094 139.04C375.037 136.943 370.536 133.922 366.589 129.975C362.519 125.905 359.497 121.342 357.524 116.285C355.551 111.105 354.564 105.863 354.564 100.56C354.564 95.2567 355.551 90.0767 357.524 85.02C359.497 79.9633 362.519 75.4 366.589 71.33C370.659 67.26 375.222 64.2383 380.279 62.265C385.459 60.1683 390.701 59.12 396.004 59.12C401.307 59.12 406.487 60.1683 411.544 62.265C416.724 64.2383 421.349 67.26 425.419 71.33L431.154 77.065L385.089 123.13C389.776 125.473 394.709 126.275 399.889 125.535C405.192 124.672 409.817 122.267 413.764 118.32L419.499 112.585ZM378.244 82.8C373.311 87.7333 370.844 93.6533 370.844 100.56C370.844 104.383 371.707 108.022 373.434 111.475C374.914 109.995 377.134 107.775 380.094 104.815C383.177 101.732 386.384 98.525 389.714 95.195C393.167 91.7417 396.436 88.4733 399.519 85.39C402.726 82.3067 405.192 79.9017 406.919 78.175C402.232 75.8317 397.237 75.03 391.934 75.77C386.754 76.51 382.191 78.8533 378.244 82.8ZM436.947 25.45H453.412V141.815H436.947V25.45ZM459.71 58.75H475.99V141.815H459.71V58.75ZM481.386 100.375C481.386 94.5783 482.434 89.2133 484.531 84.28C486.751 79.2233 489.711 74.845 493.411 71.145C497.234 67.3217 501.674 64.3617 506.731 62.265C511.787 60.045 517.152 58.935 522.826 58.935C528.622 58.935 533.987 60.045 538.921 62.265C543.977 64.3617 548.417 67.3217 552.241 71.145C556.064 74.845 559.024 79.2233 561.121 84.28C563.341 89.2133 564.451 94.5783 564.451 100.375V142H547.986V100.375C547.986 96.9217 547.307 93.715 545.951 90.755C544.717 87.6717 542.929 85.02 540.586 82.8C538.366 80.4567 535.714 78.6683 532.631 77.435C529.547 76.0783 526.279 75.4 522.826 75.4C519.372 75.4 516.104 76.0783 513.021 77.435C510.061 78.6683 507.409 80.4567 505.066 82.8C502.846 85.02 501.057 87.6717 499.701 90.755C498.467 93.715 497.851 96.9217 497.851 100.375V142H481.386V100.375ZM635.031 112.585L646.686 124.24L640.951 129.975C637.004 133.922 632.503 136.943 627.446 139.04C622.389 141.137 617.086 142.185 611.536 142.185C605.986 142.185 600.683 141.137 595.626 139.04C590.569 136.943 586.068 133.922 582.121 129.975C578.051 125.905 575.029 121.342 573.056 116.285C571.083 111.105 570.096 105.863 570.096 100.56C570.096 95.2567 571.083 90.0767 573.056 85.02C575.029 79.9633 578.051 75.4 582.121 71.33C586.191 67.26 590.754 64.2383 595.811 62.265C600.991 60.1683 606.233 59.12 611.536 59.12C616.839 59.12 622.019 60.1683 627.076 62.265C632.256 64.2383 636.881 67.26 640.951 71.33L646.686 77.065L600.621 123.13C605.308 125.473 610.241 126.275 615.421 125.535C620.724 124.672 625.349 122.267 629.296 118.32L635.031 112.585ZM593.776 82.8C588.843 87.7333 586.376 93.6533 586.376 100.56C586.376 104.383 587.239 108.022 588.966 111.475C590.446 109.995 592.666 107.775 595.626 104.815C598.709 101.732 601.916 98.525 605.246 95.195C608.699 91.7417 611.968 88.4733 615.051 85.39C618.258 82.3067 620.724 79.9017 622.451 78.175C617.764 75.8317 612.769 75.03 607.466 75.77C602.286 76.51 597.723 78.8533 593.776 82.8Z" fill="white"/>
<path d="M194.333 28.4052H188.749L192.327 24.742C192.472 24.5928 192.587 24.4158 192.665 24.2209C192.744 24.026 192.784 23.8171 192.784 23.6062C192.784 23.3953 192.744 23.1864 192.665 22.9915C192.587 22.7967 192.472 22.6196 192.327 22.4705C192.182 22.3213 192.009 22.203 191.82 22.1223C191.63 22.0415 191.427 22 191.222 22C190.808 22 190.411 22.1692 190.118 22.4705L185 27.7494L179.882 22.4705C179.737 22.3213 179.565 22.203 179.375 22.1223C179.186 22.0415 178.983 22 178.778 22C178.573 22 178.37 22.0415 178.18 22.1223C177.991 22.203 177.818 22.3213 177.673 22.4705C177.38 22.7717 177.216 23.1802 177.216 23.6062C177.216 23.8171 177.256 24.026 177.335 24.2209C177.413 24.4158 177.528 24.5928 177.673 24.742L181.251 28.4052H175.667C174.429 28.4052 173.242 28.9108 172.367 29.8108C171.492 30.7108 171 31.9315 171 33.2043V49.201C171 50.4738 171.492 51.6944 172.367 52.5944C173.242 53.4944 174.429 54 175.667 54H194.333C195.571 54 196.758 53.4944 197.633 52.5944C198.508 51.6944 199 50.4738 199 49.201V33.2043C199 31.9315 198.508 30.7108 197.633 29.8108C196.758 28.9108 195.571 28.4052 194.333 28.4052ZM195.889 49.201C195.889 49.6252 195.725 50.0321 195.433 50.3321C195.142 50.6321 194.746 50.8007 194.333 50.8007H175.667C175.254 50.8007 174.858 50.6321 174.567 50.3321C174.275 50.0321 174.111 49.6252 174.111 49.201V38.0033C174.111 37.579 174.275 37.1721 174.567 36.8721C174.858 36.5721 175.254 36.4036 175.667 36.4036H194.333C194.746 36.4036 195.142 36.5721 195.433 36.8721C195.725 37.1721 195.889 37.579 195.889 38.0033V49.201Z" fill="white"/>
<path d="M483.032 39.601H475.355C475.228 39.6018 475.103 39.5775 474.986 39.5294C474.869 39.4814 474.762 39.4105 474.673 39.321C474.584 39.2315 474.513 39.1252 474.465 39.0081C474.417 38.891 474.392 38.7656 474.393 38.639V30.962C474.393 30.836 474.368 30.7112 474.32 30.5948C474.271 30.4784 474.2 30.3727 474.111 30.2839C474.021 30.195 473.915 30.1247 473.799 30.0771C473.682 30.0294 473.557 30.0052 473.431 30.006H470.557C470.431 30.0052 470.306 30.0294 470.189 30.0771C470.073 30.1247 469.967 30.195 469.877 30.2839C469.788 30.3727 469.717 30.4784 469.668 30.5948C469.62 30.7112 469.595 30.836 469.595 30.962V38.64C469.596 38.7666 469.571 38.892 469.523 39.0091C469.475 39.1262 469.405 39.2325 469.315 39.322C469.226 39.4115 469.119 39.4824 469.002 39.5304C468.885 39.5785 468.76 39.6028 468.633 39.602H465.759C465.633 39.6027 465.507 39.5782 465.39 39.5301C465.273 39.482 465.167 39.4111 465.078 39.3217C464.988 39.2322 464.918 39.1259 464.87 39.0089C464.822 38.8919 464.797 38.7665 464.798 38.64V30.962C464.799 30.8355 464.774 30.71 464.726 30.5929C464.678 30.4759 464.608 30.3695 464.518 30.28C464.429 30.1905 464.322 30.1197 464.205 30.0716C464.088 30.0236 463.963 29.9992 463.836 30H460.956C460.83 30 460.705 30.0249 460.589 30.0734C460.472 30.1218 460.367 30.1927 460.278 30.2821C460.189 30.3716 460.119 30.4777 460.071 30.5943C460.023 30.711 459.999 30.836 460 30.962V53.038C459.999 53.1646 460.024 53.29 460.072 53.4071C460.12 53.5242 460.191 53.6305 460.28 53.72C460.369 53.8095 460.476 53.8804 460.593 53.9284C460.71 53.9765 460.835 54.0008 460.962 54H483.032C483.159 54.0008 483.284 53.9765 483.401 53.9284C483.518 53.8804 483.625 53.8095 483.714 53.72C483.804 53.6305 483.874 53.5242 483.922 53.4071C483.97 53.29 483.995 53.1646 483.994 53.038V40.58C483.997 40.452 483.975 40.3246 483.928 40.2054C483.881 40.0862 483.81 39.9777 483.721 39.8863C483.631 39.7949 483.524 39.7224 483.405 39.6733C483.287 39.6241 483.16 39.5992 483.032 39.6V39.601ZM479.172 47.753C479.173 47.9422 479.136 48.1297 479.064 48.3048C478.992 48.4798 478.887 48.6389 478.753 48.773C478.62 48.9071 478.461 49.0135 478.286 49.0861C478.112 49.1587 477.924 49.196 477.735 49.196H475.811C475.622 49.1959 475.435 49.1584 475.26 49.0858C475.085 49.0131 474.927 48.9067 474.793 48.7727C474.66 48.6386 474.554 48.4795 474.483 48.3045C474.411 48.1296 474.374 47.9421 474.375 47.753V45.836C474.374 45.6469 474.411 45.4595 474.483 45.2845C474.554 45.1095 474.66 44.9504 474.793 44.8164C474.927 44.6823 475.085 44.5759 475.26 44.5033C475.435 44.4306 475.622 44.3931 475.811 44.393H477.735C477.924 44.393 478.112 44.4304 478.286 44.503C478.461 44.5756 478.62 44.682 478.753 44.816C478.887 44.9501 478.992 45.1092 479.064 45.2843C479.136 45.4593 479.173 45.6468 479.172 45.836V47.753Z" fill="white"/>
</svg>
