<svg width="175" height="186" viewBox="0 0 175 186" fill="none" xmlns="http://www.w3.org/2000/svg">
<g clip-path="url(#clip0)">
<path d="M10.1787 170.047C11.8886 176.018 16.8814 180.197 22.0895 183.748C22.8167 184.244 23.5441 184.728 24.2718 185.201C24.2767 185.203 24.2818 185.208 24.2868 185.21C24.3218 185.233 24.3568 185.255 24.3895 185.278C24.5396 185.376 24.6899 185.473 24.8388 185.569L24.757 185.606C24.757 185.606 24.6767 185.649 24.7645 185.613C24.7907 185.602 24.8181 185.592 24.8442 185.581C27.8698 184.353 30.9491 183.034 33.2677 180.734C35.673 178.344 37.0786 174.597 35.7762 171.458C35.605 171.047 35.3888 170.656 35.1315 170.293C35.0258 170.141 34.9121 169.996 34.7936 169.853C34.0752 168.97 33.1362 168.296 32.0731 167.9C31.0101 167.504 29.8614 167.4 28.7452 167.599C27.629 167.797 26.5855 168.292 25.7221 169.031C24.8586 169.77 24.2064 170.728 23.8324 171.805C23.4498 168.219 26.3874 165.215 29.2144 162.999C32.0426 160.784 35.2563 158.372 35.803 154.806C36.1084 152.822 35.4229 150.899 34.1743 149.356C34.1356 149.309 34.097 149.262 34.0572 149.217C32.5373 147.419 30.3995 146.265 28.0709 145.984C23.7341 145.531 19.5217 147.841 16.3711 150.876C11.3004 155.759 8.23486 163.259 10.1787 170.047Z" fill="#F2F2F2"/>
<path d="M18.3301 162.238C17.4978 163.541 16.8588 164.96 16.4332 166.449C16.0734 167.78 15.9132 169.157 15.958 170.536C16.0741 173.372 16.8653 176.139 18.265 178.604C19.3194 180.474 20.6044 182.202 22.0894 183.748C22.8166 184.244 23.544 184.728 24.2717 185.201C24.2766 185.203 24.2817 185.208 24.2867 185.21C24.3217 185.233 24.3567 185.255 24.3894 185.278C24.5395 185.376 24.6898 185.473 24.8387 185.569C24.8387 185.569 24.6766 185.649 24.7644 185.613C24.7906 185.602 24.818 185.592 24.8441 185.581C24.5729 183.344 24.8386 181.073 25.6188 178.96C26.399 176.847 27.6711 174.953 29.3283 173.436C30.9896 171.943 32.978 170.866 35.1314 170.293C35.0257 170.141 34.912 169.996 34.7935 169.853C33.9618 170.087 33.1524 170.396 32.3747 170.774C29.5945 172.118 27.3182 174.327 25.8824 177.074C24.5941 179.569 24.0396 182.381 24.2841 185.182C24.1598 185.069 24.0353 184.953 23.9146 184.838C21.6155 182.681 19.5734 180.204 18.1914 177.346C16.9924 174.926 16.4032 172.246 16.4755 169.543C16.5883 166.595 17.7552 163.864 19.4447 161.487C21.2965 158.952 23.4841 156.682 25.9467 154.743C28.4285 152.742 31.1441 151.055 34.0332 149.718C34.0983 149.687 34.1493 149.633 34.1756 149.565C34.2018 149.498 34.2013 149.423 34.1742 149.356C34.1549 149.296 34.1129 149.246 34.0571 149.217C34.0285 149.204 33.9974 149.198 33.9662 149.2C33.935 149.201 33.9045 149.21 33.8769 149.224C33.5202 149.39 33.166 149.557 32.8146 149.732C29.8879 151.188 27.1523 153.004 24.6705 155.139C22.2733 157.196 20.0164 159.546 18.3301 162.238Z" fill="white"/>
<path d="M68.5805 79.0323C73.4694 76.3423 75.1959 70.0432 72.4366 64.9627C69.6773 59.8822 63.4771 57.9443 58.5882 60.6342C53.6992 63.3241 51.9728 69.6233 54.7321 74.7038C57.4914 79.7843 63.6915 81.7222 68.5805 79.0323Z" fill="#2F2E41"/>
<path d="M63.5843 80.8936C68.1754 80.8936 71.8972 77.1476 71.8972 72.5267C71.8972 67.9057 68.1754 64.1597 63.5843 64.1597C58.9933 64.1597 55.2715 67.9057 55.2715 72.5267C55.2715 77.1476 58.9933 80.8936 63.5843 80.8936Z" fill="#FFB8B8"/>
<path d="M59.1271 85.3249L58.0581 88.3683L59.6305 97.5284L66.1107 102.948L71.2567 94.9386L68.779 87.3612L66.9207 85.2511C66.9389 85.0614 66.918 84.87 66.8593 84.6888C66.8005 84.5076 66.7052 84.3407 66.5793 84.1983C66.4534 84.056 66.2997 83.9414 66.1277 83.8617C65.9557 83.782 65.7692 83.739 65.5799 83.7353L61.5216 83.6557C60.9988 83.6454 60.4862 83.8012 60.0563 84.1008C59.6265 84.4004 59.3014 84.8287 59.1271 85.3249Z" fill="#CCCCCC"/>
<path d="M76.3479 181.809L80.4974 181.808L81.0704 165.699L76.3466 165.7L76.3479 181.809Z" fill="#FFB8B8"/>
<path d="M88.5002 185.686L75.4592 185.687L75.4587 180.616L83.4612 180.615C84.7975 180.615 86.0791 181.149 87.0241 182.1C87.9691 183.051 88.5001 184.341 88.5002 185.686L88.5002 185.686Z" fill="#2F2E41"/>
<path d="M47.2802 181.809L51.4297 181.808L53.4029 165.699L47.2788 165.7L47.2802 181.809Z" fill="#FFB8B8"/>
<path d="M59.4325 185.686L46.3915 185.687L46.391 180.616L54.3935 180.615C55.7298 180.615 57.0114 181.149 57.9564 182.1C58.9014 183.051 59.4324 184.341 59.4325 185.686L59.4325 185.686Z" fill="#2F2E41"/>
<path d="M83.7646 68.6792C84.1903 68.9384 84.5544 69.2884 84.8312 69.7045C85.108 70.1207 85.2908 70.5929 85.3667 71.0878C85.4426 71.5827 85.4097 72.0884 85.2705 72.5692C85.1312 73.05 84.8889 73.4942 84.5606 73.8705L87.9926 80.8952L84.2599 84.0355L79.5518 74.0468C78.9602 73.4498 78.6068 72.6551 78.5584 71.8134C78.5101 70.9716 78.7702 70.1413 79.2895 69.4796C79.8088 68.818 80.5511 68.3711 81.3759 68.2236C82.2007 68.0761 83.0506 68.2382 83.7645 68.6792H83.7646Z" fill="#FFB8B8"/>
<path d="M59.0246 123.686C57.0017 123.66 54.9823 123.51 52.9775 123.238C52.6344 123.194 52.3046 123.077 52.0104 122.894C51.7161 122.712 51.4642 122.467 51.2716 122.178C51.079 121.889 50.9503 121.562 50.8941 121.219C50.8379 120.875 50.8555 120.524 50.9458 120.188L55.4376 103.448L51.8202 93.2332C51.4305 92.1301 51.4742 90.9188 51.9423 89.847C52.4105 88.7753 53.2677 87.924 54.3388 87.4673L59.3076 85.353L60.801 94.6574L64.3588 99.1726C64.477 99.3226 64.63 99.4408 64.8044 99.5171C64.9788 99.5933 65.1691 99.6251 65.3586 99.6096C65.5481 99.5942 65.7309 99.5319 65.8908 99.4284C66.0507 99.3249 66.1829 99.1834 66.2755 99.0163L68.9773 94.1419L66.7703 85.1853L70.0607 85.577C71.1229 85.7071 72.1275 86.1348 72.96 86.8114C73.7925 87.4881 74.4194 88.3865 74.7693 89.4043C75.7805 92.3641 75.8687 95.5642 75.022 98.5758L73.6585 103.451L76.0527 119.027C76.1182 119.451 76.0974 119.885 75.9916 120.301C75.8857 120.717 75.697 121.107 75.437 121.447C75.1769 121.788 74.8509 122.072 74.4786 122.282C74.1064 122.492 73.6956 122.623 73.2713 122.669C71.7415 122.846 70.2009 122.911 68.6617 122.863C67.265 122.803 66.284 121.946 65.8248 120.384C65.7998 120.292 65.7458 120.212 65.6711 120.154C65.5963 120.096 65.5048 120.065 65.4107 120.064C65.3165 120.064 65.2247 120.094 65.1493 120.151C65.074 120.208 65.0192 120.288 64.9933 120.38C64.8662 120.833 64.7263 121.338 64.5738 121.895C64.2039 123.246 61.8873 123.686 59.0246 123.686Z" fill="#2F2E41"/>
<path d="M73.4619 93.4699C73.0494 93.471 72.6408 93.3898 72.2597 93.2309C71.8121 93.0442 71.4169 92.7496 71.1089 92.3732C70.801 91.9967 70.5896 91.5498 70.4935 91.0718C70.3484 90.3136 70.4494 89.5286 70.7814 88.8326C71.1134 88.1366 71.6589 87.5665 72.3374 87.2063L82.0331 81.9078L81.5028 79.7973C81.4294 79.4736 81.452 79.1354 81.5679 78.8245C81.6837 78.5137 81.8876 78.2439 82.1543 78.0486L84.6544 76.1793C84.8444 76.0326 85.0646 75.9307 85.2988 75.8809C85.5331 75.8311 85.7754 75.8347 86.0081 75.8915C86.2132 75.9434 86.4041 76.0408 86.5669 76.1766C86.7297 76.3125 86.8602 76.4833 86.9489 76.6765L88.2477 79.4991C89.2754 81.7321 88.3968 84.4825 86.2039 85.8964L75.3294 92.9078C74.773 93.2708 74.125 93.4659 73.4619 93.4699Z" fill="#2F2E41"/>
<path d="M53.0349 174.32C53.0011 174.32 52.9672 174.319 52.9331 174.317L47.6501 174.103C47.4452 174.09 47.245 174.036 47.0615 173.943C46.8781 173.851 46.7151 173.722 46.5825 173.564C46.4498 173.406 46.3503 173.223 46.2897 173.026C46.2291 172.828 46.2089 172.62 46.2301 172.415L51.5919 120.495L65.6636 115.344L73.9503 120.064L83.016 170.373C83.0872 170.758 83.0094 171.155 82.7985 171.484C82.5875 171.814 82.2595 172.049 81.8816 172.142L81.8597 172.148L76.4517 172.014C76.0789 172.099 75.6881 172.04 75.3564 171.849C75.0246 171.658 74.776 171.349 74.6595 170.983L63.1422 130.303C63.1076 130.197 63.0394 130.105 62.948 130.042C62.8566 129.978 62.7471 129.947 62.6362 129.952C62.5253 129.957 62.4191 129.999 62.334 130.07C62.2488 130.142 62.1893 130.24 62.1646 130.349L54.5188 173.12C54.4446 173.46 54.2569 173.765 53.987 173.983C53.7171 174.202 53.3811 174.321 53.0349 174.32Z" fill="#2F2E41"/>
<path d="M56.3239 67.2446C55.0014 68.9872 56.0078 71.9532 58.113 72.5175C60.2182 73.0819 62.557 71.0126 62.2709 68.8389C61.8166 71.1195 63.7559 73.5062 66.0581 73.709C68.3603 73.9117 70.5987 72.0962 71.1024 69.8261C71.6061 67.556 70.482 65.0758 68.5683 63.7716C66.6547 62.4675 64.0922 62.2981 61.927 63.1112C59.7167 63.9433 57.7777 65.3737 56.3239 67.2446Z" fill="#2F2E41"/>
<path d="M66.3449 59.8068C65.1135 57.2059 63.8484 54.5551 61.8582 52.4843C59.868 50.4134 56.989 48.9872 54.1679 49.4755C51.3468 49.9638 48.9174 52.8296 49.5422 55.6412C49.8596 57.0694 48.6446 58.4845 47.2441 58.8779C45.8436 59.2713 44.3511 58.9034 42.9666 58.4563C41.5821 58.0093 40.1795 57.4754 38.7268 57.5384C35.814 57.6646 33.3787 60.4396 33.2764 63.3723C33.174 66.305 35.1561 69.0965 37.8153 70.2996C40.4745 71.5027 43.6554 71.2331 46.2784 69.9519C48.9013 68.6707 50.9986 66.4619 52.5323 63.9662C54.7984 60.2784 60.4932 59.3689 63.7823 62.1693C64.1346 62.4477 64.5781 62.5822 65.0244 62.5462C65.4708 62.5101 65.8873 62.3062 66.191 61.9749C66.7727 61.2918 66.6884 60.1393 66.3449 59.8068Z" fill="#2F2E41"/>
<path d="M128.462 45.1898L125.689 42.6718C115.841 33.5713 109.339 27.6646 109.339 20.3067C109.339 14.3035 113.929 9.65636 119.857 9.65636C121.498 9.66516 123.118 10.0335 124.604 10.7357C126.09 11.438 127.407 12.4573 128.462 13.723C129.517 12.4573 130.834 11.4379 132.32 10.7357C133.806 10.0334 135.426 9.66513 137.067 9.65636C142.996 9.65636 147.585 14.3036 147.585 20.3067C147.585 27.6647 141.083 33.5714 131.235 42.6718L128.462 45.1898Z" fill="#F04747"/>
<path d="M82.8079 62.506C82.5481 62.4149 82.3232 62.2441 82.1647 62.0178C82.0062 61.7914 81.922 61.5208 81.9241 61.2438V3.06593C81.925 2.25308 82.2463 1.47379 82.8173 0.899018C83.3884 0.324245 84.1626 0.000929569 84.9702 0H171.954C172.761 0.000929569 173.536 0.324245 174.107 0.899018C174.678 1.47379 174.999 2.25308 175 3.06593V52.1209C174.999 52.9337 174.678 53.713 174.107 54.2878C173.536 54.8626 172.761 55.1859 171.954 55.1868H89.8998L84.2862 62.0927C84.163 62.2465 84.0071 62.3706 83.8301 62.456C83.653 62.5414 83.4592 62.5859 83.2629 62.5862C83.1078 62.586 82.9539 62.5588 82.8079 62.506ZM84.9702 0.681319C84.3421 0.682028 83.7399 0.933491 83.2957 1.38054C82.8516 1.82759 82.6017 2.43371 82.601 3.06593V61.2438C82.601 61.3797 82.6428 61.5123 82.7206 61.6234C82.7984 61.7345 82.9084 61.8187 83.0356 61.8644C83.1627 61.9101 83.3008 61.9151 83.431 61.8787C83.5611 61.8424 83.6768 61.7664 83.7623 61.6612L89.579 54.5055H171.954C172.582 54.5048 173.184 54.2533 173.628 53.8063C174.073 53.3592 174.322 52.7531 174.323 52.1209V3.06593C174.322 2.43371 174.073 1.82759 173.628 1.38054C173.184 0.933491 172.582 0.682028 171.954 0.681319H84.9702Z" fill="#3F3D56"/>
<path d="M57.1582 115.604L56.5704 114.229C54.5093 109.288 53.1318 106.063 54.3469 103.4C54.7877 102.387 55.6102 101.593 56.6333 101.19C57.6565 100.788 58.7964 100.811 59.8025 101.255C59.8391 101.271 59.8756 101.288 59.9118 101.305C60.5044 101.583 61.0299 101.987 61.4517 102.49C61.8735 102.993 62.1815 103.582 62.3544 104.217C62.9453 103.935 63.59 103.786 64.2437 103.781C64.8974 103.775 65.5445 103.913 66.1401 104.184C66.6369 104.407 67.0852 104.726 67.4595 105.123C67.8338 105.521 68.1268 105.988 68.3216 106.499C68.5164 107.01 68.6093 107.555 68.5949 108.102C68.5806 108.649 68.4593 109.188 68.238 109.688C68.2217 109.725 68.2049 109.762 68.1875 109.798C66.9725 112.461 63.6442 113.511 58.5776 115.157L57.1582 115.604Z" fill="#F04747"/>
<path d="M59.4234 108.849C59.2651 108.374 59.0053 107.94 58.6622 107.577C58.3192 107.214 57.9014 106.932 57.4381 106.749C56.9748 106.566 56.4774 106.488 55.9808 106.52C55.4842 106.552 55.0006 106.693 54.5641 106.933L48.4806 102.333L47.0121 106.541L53.2991 111.814C53.7487 112.526 54.442 113.046 55.2475 113.278C56.0531 113.509 56.915 113.435 57.6699 113.069C58.4248 112.704 59.0202 112.072 59.3434 111.294C59.6666 110.517 59.695 109.646 59.4234 108.849H59.4234Z" fill="#FFB8B8"/>
<path d="M50.7007 110.3C50.4328 110.3 50.1703 110.223 49.9439 110.079L47.3314 108.417C45.2643 107.102 44.5199 104.312 45.5999 101.927L50.9555 90.0984C51.1704 89.6026 51.5013 89.1665 51.9201 88.8274C52.3388 88.4883 52.8328 88.2562 53.36 88.1509C53.8366 88.0632 54.3274 88.0948 54.7891 88.2428C55.2507 88.3909 55.6692 88.651 56.0075 89.0001C56.538 89.5578 56.8764 90.2723 56.9726 91.0383C57.0689 91.8043 56.918 92.5811 56.5421 93.2542L51.2534 103L52.8366 104.483C53.0727 104.714 53.236 105.011 53.3062 105.335C53.3765 105.66 53.3507 105.998 53.2319 106.308L52.1393 109.243C52.0587 109.47 51.9286 109.676 51.7587 109.846C51.5888 110.015 51.3833 110.145 51.1573 110.224C51.0102 110.274 50.856 110.3 50.7007 110.3Z" fill="#2F2E41"/>
<path d="M106.614 186H0.338458C0.248693 186 0.16261 185.964 0.0991369 185.9C0.0356638 185.836 0 185.75 0 185.659C0 185.569 0.0356638 185.482 0.0991369 185.418C0.16261 185.355 0.248693 185.319 0.338458 185.319H106.614C106.704 185.319 106.79 185.355 106.854 185.418C106.917 185.482 106.953 185.569 106.953 185.659C106.953 185.75 106.917 185.836 106.854 185.9C106.79 185.964 106.704 186 106.614 186Z" fill="#CCCCCC"/>
</g>
<defs>
<clipPath id="clip0">
<rect width="175" height="186" fill="white"/>
</clipPath>
</defs>
</svg>
